<?xml version="1.0" encoding="utf-8"?>
<!-- Generator: Adobe Illustrator 28.1.0, SVG Export Plug-In . SVG Version: 6.00 Build 0)  -->
<svg version="1.1" id="Layer_3" xmlns="http://www.w3.org/2000/svg" xmlns:xlink="http://www.w3.org/1999/xlink" x="0px" y="0px"
	 viewBox="0 0 4612.2 1092.3" style="enable-background:new 0 0 4612.2 1092.3;" xml:space="preserve">
<style type="text/css">
	.st0{fill:#EEE7E7;stroke:#595454;stroke-miterlimit:10;}
	.st1{fill:#EEE7E7;stroke:#595454;stroke-width:5;stroke-linecap:round;stroke-linejoin:round;stroke-miterlimit:10;}
	.st2{opacity:0;fill:#EEE7E7;stroke:#595454;stroke-width:5;stroke-linecap:round;stroke-linejoin:round;stroke-miterlimit:10;}
	.st3{opacity:0;}
</style>
<g>
	<path class="st0" d="M229.2,916.6v13.2c0,0.1,0,0.2,0,0.3v0c0.1,1.1-0.6,2.2-1.7,2.5c-0.6,0.2-6.4,2-18.4,4.1v6.9
		c0,0.7-0.3,1.3-0.8,1.8c-4.2,4-11,6.6-21.3,8.2l0.4,15.6h14.9c1.4,0,2.5,1.1,2.5,2.5V982c0,1.4-1.1,2.5-2.5,2.5h-14.5l0.7,28.3h2.3
		c1.4,0,2.5,1.1,2.5,2.5c0,1.4-1.1,2.5-2.5,2.5h-2.2l1.7,64.7c0,0.7-0.2,1.3-0.7,1.8s-1.1,0.8-1.8,0.8h-22.1c-0.7,0-1.3-0.3-1.8-0.8
		c-0.5-0.5-0.7-1.1-0.7-1.8l2-64.7h-2.5c-1.4,0-2.5-1.1-2.5-2.5c0-1.4,1.1-2.5,2.5-2.5h2.6l0.9-28.3H76.7l0.7,28.3H80
		c1.4,0,2.5,1.1,2.5,2.5c0,1.4-1.1,2.5-2.5,2.5h-2.5l1.7,64.7c0,0.7-0.2,1.3-0.7,1.8c-0.5,0.5-1.1,0.8-1.8,0.8H55.3
		c-0.7,0-1.3-0.3-1.8-0.8c-0.5-0.5-0.7-1.1-0.7-1.8l1.7-64.7H52c-1.4,0-2.5-1.1-2.5-2.5c0-1.4,1.1-2.5,2.5-2.5h2.6l0.7-28.3H41.9
		c-1.4,0-2.5-1.1-2.5-2.5v-10.2c0-1.4,1.1-2.5,2.5-2.5h13.8l0.4-15.6c-10.3-1.6-17.1-4.2-21.3-8.2c-0.5-0.5-0.8-1.1-0.8-1.8v-6.9
		c-12-2.1-17.9-3.9-18.4-4.1c-1.1-0.4-1.8-1.4-1.7-2.5v0c0-0.1,0-0.2,0-0.3v-13.2c0-0.8,0.4-1.5,1-2c0.6-0.5,1.5-0.6,2.2-0.4
		c0.3,0.1,32.6,10.1,104.3,10.1c71.8,0,104-10,104.3-10.1c0.8-0.2,1.6-0.1,2.2,0.4C228.8,915,229.2,915.8,229.2,916.6z"/>
	<g>
		<g>
			<line class="st1" x1="58.7" y1="951.9" x2="58.2" y2="971.8"/>
			<polyline class="st1" points="74.1,982 76.7,1082.6 55.3,1082.6 57.9,982 			"/>
			<line class="st1" x1="73.8" y1="971.8" x2="73.3" y2="953"/>
			<line class="st1" x1="184.9" y1="971.8" x2="184.4" y2="951.9"/>
			<polyline class="st1" points="185.2,982 187.8,1082.6 165.8,1082.6 168.8,982 			"/>
			<line class="st1" x1="169.7" y1="953" x2="169.1" y2="971.8"/>
		</g>
		<path class="st1" d="M36.6,936.8v6.8c8.9,8.7,33.9,10,74.8,10.2"/>
		<path class="st1" d="M206.5,936.8v6.8c-8.9,8.7-33.9,10-74.8,10.2"/>
		<path class="st1" d="M226.7,929.8v-13.2c0,0-32,10.2-105.1,10.2S16.5,916.6,16.5,916.6v13.2"/>
		<path class="st1" d="M226.7,930.2c0,0-32,10.2-105.1,10.2S16.5,930.2,16.5,930.2"/>
		<polyline class="st1" points="185.3,982 192.4,982 202.3,982 202.3,971.8 190.6,971.8 185,971.8 		"/>
		<polyline class="st1" points="192.4,982 185.3,982 185.2,982 168.8,982 74.1,982 57.9,982 57.9,982 56.3,982 		"/>
		<polyline class="st1" points="190.6,971.8 185,971.8 184.9,971.8 169.1,971.8 127.7,971.8 115.5,971.8 73.8,971.8 58.2,971.8 
			58.1,971.8 50,971.8 		"/>
		<polyline class="st1" points="57.9,982 56.3,982 41.9,982 41.9,971.8 50,971.8 58.1,971.8 		"/>
		<polyline class="st1" points="111.4,971.8 111.4,948.5 131.7,948.5 		"/>
		<line class="st1" x1="131.7" y1="948.5" x2="131.7" y2="971.8"/>
		<line class="st1" x1="52" y1="1015.3" x2="80" y2="1015.3"/>
		<line class="st1" x1="162.8" y1="1015.3" x2="190.8" y2="1015.3"/>
	</g>
</g>
<g>
	<rect x="2806.4" y="479.6" class="st1" width="79.1" height="17.6"/>
	<rect x="2822.4" y="414.8" class="st1" width="47.1" height="64.8"/>
	<rect x="2832.8" y="388.5" class="st1" width="26.3" height="26.3"/>
	<line class="st1" x1="2846" y1="323.5" x2="2846" y2="388.5"/>
	<g>
		<polyline class="st1" points="2798.7,879.4 2776.8,1081.2 2862.3,1081.2 		"/>
		<polyline class="st1" points="2887.4,879.4 2891.6,918 2893.5,935.3 2895.4,952.7 2897.3,970.1 2899.2,987.5 2901.1,1004.9 
			2902.9,1022.2 2909.4,1081.2 2903.2,1081.2 2862.3,1081.2 2856.1,1081.2 2823.9,1081.2 		"/>
	</g>
	<circle class="st1" cx="2843.2" cy="879.4" r="11.9"/>
	<g>
		<polyline class="st1" points="2842.1,560.9 2888.4,560.9 2899.1,497.2 2842.1,497.2 2845.7,497.2 2788.7,497.2 2799.4,560.9 
			2845.7,560.9 		"/>
		<g>
			<g>
				<line class="st1" x1="2824.1" y1="510.2" x2="2865.1" y2="510.2"/>
				<g>
					<line class="st1" x1="2812.8" y1="510.2" x2="2801.2" y2="510.2"/>
					<line class="st1" x1="2887.9" y1="510.2" x2="2876.3" y2="510.2"/>
				</g>
			</g>
			<g>
				<line class="st1" x1="2839.1" y1="527.6" x2="2865.1" y2="527.6"/>
				<g>
					<line class="st1" x1="2812.2" y1="527.6" x2="2804.4" y2="527.6"/>
				</g>
			</g>
			<g>
				<line class="st1" x1="2824.1" y1="545" x2="2865.1" y2="545"/>
				<g>
					<line class="st1" x1="2812.8" y1="545" x2="2808.3" y2="545"/>
					<line class="st1" x1="2880.9" y1="545" x2="2876.3" y2="545"/>
				</g>
			</g>
		</g>
	</g>
	<g>
		<polyline class="st1" points="2842.1,624.6 2888.4,624.6 2899.1,560.9 2842.1,560.9 2845.7,560.9 2788.7,560.9 2799.4,624.6 
			2845.7,624.6 		"/>
		<g>
			<g>
				<line class="st1" x1="2851.5" y1="573.9" x2="2865.1" y2="573.9"/>
				<line class="st1" x1="2824.1" y1="573.9" x2="2836.8" y2="573.9"/>
				<g>
					<line class="st1" x1="2812.8" y1="573.9" x2="2801.2" y2="573.9"/>
					<line class="st1" x1="2887.9" y1="573.9" x2="2876.3" y2="573.9"/>
				</g>
			</g>
			<g>
				<line class="st1" x1="2824.1" y1="591.3" x2="2848.9" y2="591.3"/>
				<g>
					<line class="st1" x1="2884.2" y1="591.3" x2="2876.3" y2="591.3"/>
				</g>
			</g>
			<g>
				<line class="st1" x1="2824.1" y1="608.7" x2="2865.1" y2="608.7"/>
				<g>
					<line class="st1" x1="2812.8" y1="608.7" x2="2808.3" y2="608.7"/>
					<line class="st1" x1="2880.9" y1="608.7" x2="2876.3" y2="608.7"/>
				</g>
			</g>
		</g>
	</g>
	<g>
		<polyline class="st1" points="2842.1,688.3 2888.4,688.3 2899.1,624.6 2842.1,624.6 2845.7,624.6 2788.7,624.6 2799.4,688.3 
			2845.7,688.3 		"/>
		<g>
			<g>
				<line class="st1" x1="2824.1" y1="637.6" x2="2865.1" y2="637.6"/>
				<g>
					<line class="st1" x1="2812.8" y1="637.6" x2="2801.2" y2="637.6"/>
					<line class="st1" x1="2887.9" y1="637.6" x2="2876.3" y2="637.6"/>
				</g>
			</g>
			<g>
				<line class="st1" x1="2824.1" y1="655" x2="2865.1" y2="655"/>
				<g>
					<line class="st1" x1="2884.2" y1="655" x2="2876.3" y2="655"/>
					<line class="st1" x1="2812.2" y1="655" x2="2804.4" y2="655"/>
				</g>
			</g>
			<g>
				<line class="st1" x1="2856.5" y1="672.4" x2="2865.1" y2="672.4"/>
				<line class="st1" x1="2824.1" y1="672.4" x2="2843.9" y2="672.4"/>
				<g>
					<line class="st1" x1="2812.8" y1="672.4" x2="2808.3" y2="672.4"/>
				</g>
			</g>
		</g>
	</g>
	<g>
		<polyline class="st1" points="2842.1,752 2888.4,752 2899.1,688.3 2842.1,688.3 2845.7,688.3 2788.7,688.3 2799.4,752 2845.7,752 
					"/>
		<g>
			<g>
				<line class="st1" x1="2824.1" y1="701.3" x2="2865.1" y2="701.3"/>
				<g>
					<line class="st1" x1="2812.8" y1="701.3" x2="2801.2" y2="701.3"/>
					<line class="st1" x1="2887.9" y1="701.3" x2="2876.3" y2="701.3"/>
				</g>
			</g>
			<g>
				<line class="st1" x1="2824.1" y1="718.7" x2="2865.1" y2="718.7"/>
				<g>
					<line class="st1" x1="2884.2" y1="718.7" x2="2876.3" y2="718.7"/>
					<line class="st1" x1="2812.2" y1="718.7" x2="2804.4" y2="718.7"/>
				</g>
			</g>
			<g>
				<line class="st1" x1="2855.1" y1="736.1" x2="2865.1" y2="736.1"/>
				<line class="st1" x1="2824.1" y1="736.1" x2="2842.1" y2="736.1"/>
				<g>
					<line class="st1" x1="2812.8" y1="736.1" x2="2808.3" y2="736.1"/>
					<line class="st1" x1="2880.9" y1="736.1" x2="2876.3" y2="736.1"/>
				</g>
			</g>
		</g>
	</g>
	<g>
		<polyline class="st1" points="2842.1,815.7 2888.4,815.7 2899.1,752 2842.1,752 2845.7,752 2788.7,752 2799.4,815.7 2845.7,815.7 
					"/>
		<g>
			<g>
				<line class="st1" x1="2824.1" y1="765" x2="2865.1" y2="765"/>
				<g>
					<line class="st1" x1="2812.8" y1="765" x2="2801.2" y2="765"/>
					<line class="st1" x1="2887.9" y1="765" x2="2876.3" y2="765"/>
				</g>
			</g>
			<g>
				<line class="st1" x1="2846.8" y1="782.4" x2="2865.1" y2="782.4"/>
				<line class="st1" x1="2824.1" y1="782.4" x2="2830.5" y2="782.4"/>
				<g>
					<line class="st1" x1="2812.2" y1="782.4" x2="2804.4" y2="782.4"/>
				</g>
			</g>
			<g>
				<line class="st1" x1="2824.1" y1="799.8" x2="2852.1" y2="799.8"/>
				<g>
					<line class="st1" x1="2812.8" y1="799.8" x2="2808.3" y2="799.8"/>
					<line class="st1" x1="2880.9" y1="799.8" x2="2876.3" y2="799.8"/>
				</g>
			</g>
		</g>
	</g>
	<g>
		<polyline class="st1" points="2855.1,879.4 2887.4,879.4 2888.4,879.4 2899.1,815.7 2845.7,815.7 2788.7,815.7 2799.4,879.4 
			2831.3,879.4 		"/>
		<g>
			<g>
				<line class="st1" x1="2824.1" y1="828.7" x2="2865.1" y2="828.7"/>
				<g>
					<line class="st1" x1="2812.8" y1="828.7" x2="2801.2" y2="828.7"/>
					<line class="st1" x1="2887.9" y1="828.7" x2="2876.3" y2="828.7"/>
				</g>
			</g>
			<g>
				<line class="st1" x1="2843.2" y1="846.1" x2="2865.1" y2="846.1"/>
				<g>
					<line class="st1" x1="2884.2" y1="846.1" x2="2876.3" y2="846.1"/>
					<line class="st1" x1="2812.2" y1="846.1" x2="2804.4" y2="846.1"/>
				</g>
			</g>
			<g>
				<line class="st2" x1="2824.1" y1="863.5" x2="2865.1" y2="863.5"/>
				<g>
					<line class="st1" x1="2812.8" y1="863.5" x2="2808.3" y2="863.5"/>
					<line class="st1" x1="2880.9" y1="863.5" x2="2876.3" y2="863.5"/>
				</g>
			</g>
		</g>
	</g>
	<line class="st1" x1="2822.7" y1="900.6" x2="2863.7" y2="900.6"/>
	<line class="st2" x1="2879.8" y1="900.6" x2="2875" y2="900.6"/>
	<line class="st1" x1="2822.7" y1="918" x2="2863.7" y2="918"/>
	<line class="st2" x1="2881.7" y1="918" x2="2875" y2="918"/>
	<line class="st1" x1="2822.7" y1="935.3" x2="2863.7" y2="935.3"/>
	<line class="st1" x1="2883.6" y1="935.3" x2="2875" y2="935.3"/>
	<line class="st1" x1="2822.7" y1="952.7" x2="2863.7" y2="952.7"/>
	<line class="st2" x1="2885.5" y1="952.7" x2="2875" y2="952.7"/>
	<line class="st2" x1="2822.7" y1="970.1" x2="2863.7" y2="970.1"/>
	<line class="st1" x1="2887.4" y1="970.1" x2="2875" y2="970.1"/>
	<line class="st2" x1="2822.7" y1="987.5" x2="2863.7" y2="987.5"/>
	<line class="st2" x1="2889.3" y1="987.5" x2="2875" y2="987.5"/>
	<line class="st1" x1="2822.7" y1="1004.8" x2="2863.7" y2="1004.8"/>
	<line class="st1" x1="2891.2" y1="1004.9" x2="2875" y2="1004.9"/>
	<line class="st2" x1="2822.7" y1="1022.2" x2="2863.7" y2="1022.2"/>
	<line class="st1" x1="2893" y1="1022.2" x2="2875" y2="1022.2"/>
	<line class="st2" x1="2822.7" y1="1039.6" x2="2863.7" y2="1039.6"/>
	<line class="st2" x1="2894.9" y1="1039.6" x2="2875" y2="1039.6"/>
	<line class="st1" x1="2822.7" y1="1056.9" x2="2863.7" y2="1056.9"/>
	<line class="st2" x1="2896.8" y1="1056.9" x2="2875" y2="1056.9"/>
	<line class="st1" x1="2811.5" y1="900.6" x2="2806.6" y2="900.6"/>
	<line class="st1" x1="2811.5" y1="918" x2="2804.7" y2="918"/>
	<line class="st1" x1="2811.5" y1="935.3" x2="2802.8" y2="935.3"/>
	<line class="st1" x1="2811.5" y1="952.7" x2="2801" y2="952.7"/>
	<line class="st1" x1="2811.5" y1="970.1" x2="2799.1" y2="970.1"/>
	<line class="st1" x1="2811.5" y1="987.5" x2="2797.2" y2="987.5"/>
	<line class="st1" x1="2811.5" y1="1004.9" x2="2795.3" y2="1004.9"/>
	<line class="st1" x1="2811.5" y1="1022.2" x2="2793.4" y2="1022.2"/>
	<line class="st1" x1="2811.5" y1="1039.6" x2="2791.5" y2="1039.6"/>
	<line class="st1" x1="2789.6" y1="1056.9" x2="2811.5" y2="1056.9"/>
</g>
<g>
	<path class="st0" d="M3206.5,1082.5c0,0.6-0.2,1.2-0.6,1.6c-0.1,0.1-0.1,0.1-0.2,0.2c-0.2,0.2-0.5,0.4-0.8,0.5
		c-0.1,0-0.1,0.1-0.2,0.1c-0.2,0.1-0.4,0.1-0.7,0.1h-83.9c-1.4,0-2.5-1.1-2.5-2.5c0-48.1-29-87.3-64.7-87.3
		c-35.7,0-64.7,39.2-64.7,87.3c0,1.4-1.1,2.5-2.5,2.5h-83.9c-0.4,0-0.7-0.1-1-0.2c-0.1,0-0.2-0.1-0.2-0.1c-0.3-0.2-0.5-0.4-0.7-0.6
		c-0.1-0.1-0.2-0.2-0.3-0.4v0c-0.1-0.1-0.1-0.3-0.2-0.4c-0.1-0.2-0.1-0.4-0.1-0.5c0-0.1,0-0.1,0-0.2c0,0,0,0,0,0c0-0.1,0-0.2,0-0.4
		c0-0.1,0.1-0.3,0.1-0.4c0-0.1,0.1-0.2,0.1-0.2c0-0.1,0.1-0.2,0.2-0.3c0-0.1,0.1-0.1,0.1-0.2c0.1-0.1,0.1-0.1,0.1-0.2
		c34.9-37.4,59.8-74.3,78.2-116.1h-4c-1.4,0-2.5-1.1-2.5-2.5v-26.3c0-1.4,1.1-2.5,2.5-2.5h16.3c8.6-24.9,15.4-51.7,20.7-81.8h-5.5
		c-1.4,0-2.5-1.1-2.5-2.5v-26.3c0-1.4,1.1-2.5,2.5-2.5h10.3c6.3-48.2,9.4-105.7,9.5-175.8h-5.1c-1.4,0-2.5-1.1-2.5-2.5v-26.3
		c0-1.4,1.1-2.5,2.5-2.5h5.6c3.4-11.7,13.1-20,24.5-21.1V556c0-1.4,1.1-2.5,2.5-2.5c1.4,0,2.5,1.1,2.5,2.5v36.1
		c11.4,1.1,21.1,9.4,24.5,21.1h5.6c1.4,0,2.5,1.1,2.5,2.5V642c0,1.4-1.1,2.5-2.5,2.5h-5.1c0.1,70.1,3.2,127.6,9.5,175.8h10.3
		c1.4,0,2.5,1.1,2.5,2.5v26.3c0,1.4-1.1,2.5-2.5,2.5h-5.5c5.3,30.1,12.1,56.9,20.7,81.8h16.3c1.4,0,2.5,1.1,2.5,2.5v26.3
		c0,1.4-1.1,2.5-2.5,2.5h-4.1c18.4,41.8,43.3,78.7,78.1,116.1c0.2,0.2,0.3,0.4,0.4,0.6c0,0.1,0.1,0.1,0.1,0.2c0,0.1,0.1,0.1,0.1,0.2
		c0,0.1,0,0.2,0.1,0.2C3206.5,1082.2,3206.5,1082.4,3206.5,1082.5z"/>
	<g>
		<path class="st1" d="M2964.8,1082.7c4.5-49.6,41-88.5,85.8-89.8c0.1,0,0.3,0,0.4,0c0.6,0,1.3,0,1.9,0c0.6,0,1.3,0,1.9,0
			c0.1,0,0.3,0,0.4,0c44.8,1.3,81.3,40.2,85.8,89.8"/>
		<g>
			<path class="st1" d="M2982,962.4c-19.3,44.9-45.5,83.2-80.1,120.3"/>
			<path class="st1" d="M3018.1,823c6.9-51.1,9.8-110.3,9.8-180.8"/>
			<path class="st1" d="M2992.2,936.1c9.2-26.3,16.4-54.9,21.9-86.8"/>
			<path class="st1" d="M3204.1,1082.7c-34.6-37.1-60.9-75.4-80.1-120.3"/>
			<path class="st1" d="M3078,642.2c0,70.6,3,129.7,9.8,180.8"/>
			<path class="st1" d="M3091.9,849.3c5.5,31.9,12.6,60.5,21.9,86.8"/>
		</g>
		<line class="st1" x1="3204.1" y1="1082.7" x2="3120.2" y2="1082.7"/>
		<line class="st1" x1="2985.8" y1="1082.7" x2="2901.9" y2="1082.7"/>
		<path class="st1" d="M2985.8,1082.7c0-49.6,30.1-89.8,67.2-89.8c37.1,0,67.2,40.2,67.2,89.8"/>
		<path class="st1" d="M3027.8,615.9c2.7-12.2,12.9-21.2,25.1-21.2c12.2,0,22.4,9,25.1,21.2"/>
		<rect x="2974.1" y="936.1" class="st1" width="157.7" height="26.3"/>
		<rect x="3005.6" y="823" class="st1" width="94.7" height="26.3"/>
		<rect x="3020.3" y="615.9" class="st1" width="65.2" height="26.3"/>
		<line class="st1" x1="3053" y1="594.7" x2="3053" y2="556.2"/>
		<path class="st1" d="M3072.1,936.1c-8.1-26.2-14.4-54.7-19.1-86.5c0,0,0,0,0,0c0-0.1,0-0.2,0-0.3"/>
		<path class="st1" d="M3033.9,936.1c8.1-26.2,14.4-54.7,19.1-86.5c0,0,0,0,0,0c0-0.1,0-0.2,0-0.3"/>
		<g>
			<line class="st1" x1="2985.8" y1="944.3" x2="2985.8" y2="954.1"/>
			<line class="st1" x1="3002.6" y1="944.3" x2="3002.6" y2="954.1"/>
			<line class="st1" x1="3019.4" y1="944.3" x2="3019.4" y2="954.1"/>
			<line class="st1" x1="3036.2" y1="944.3" x2="3036.2" y2="954.1"/>
			<line class="st1" x1="3053" y1="944.3" x2="3053" y2="954.1"/>
			<line class="st1" x1="3069.8" y1="944.3" x2="3069.8" y2="954.1"/>
			<line class="st1" x1="3086.6" y1="944.3" x2="3086.6" y2="954.1"/>
			<line class="st1" x1="3103.4" y1="944.3" x2="3103.4" y2="954.1"/>
			<line class="st1" x1="3120.2" y1="944.3" x2="3120.2" y2="954.1"/>
		</g>
		<g>
			<line class="st1" x1="3019.3" y1="831.2" x2="3019.3" y2="841.1"/>
			<line class="st1" x1="3036.1" y1="831.2" x2="3036.1" y2="841.1"/>
			<line class="st1" x1="3052.9" y1="831.2" x2="3052.9" y2="841.1"/>
			<line class="st1" x1="3069.7" y1="831.2" x2="3069.7" y2="841.1"/>
			<line class="st1" x1="3086.5" y1="831.2" x2="3086.5" y2="841.1"/>
		</g>
		<g>
			<line class="st1" x1="3036.1" y1="624.1" x2="3036.1" y2="634"/>
			<line class="st1" x1="3052.9" y1="624.1" x2="3052.9" y2="634"/>
			<line class="st1" x1="3069.7" y1="624.1" x2="3069.7" y2="634"/>
		</g>
		<line class="st1" x1="3027.9" y1="660.8" x2="3078" y2="660.8"/>
		<line class="st1" x1="3052.9" y1="812.3" x2="3052.9" y2="773.7"/>
	</g>
</g>
<g>
	<g>
		<line class="st1" x1="2129.6" y1="995.9" x2="2088.5" y2="995.9"/>
		<polyline class="st1" points="2141.2,995.9 2168.6,995.9 2200.6,995.9 2232.6,995.9 2264.5,995.9 2351.1,995.9 		"/>
		<line class="st1" x1="2129.6" y1="1018.5" x2="2088.5" y2="1018.5"/>
		<polyline class="st1" points="2141.2,1018.5 2170,1018.5 2190,1018.5 2225,1018.5 2248.5,1018.5 2328.5,1018.5 		"/>
		<line class="st1" x1="2076.9" y1="1018.5" x2="1889.5" y2="1018.5"/>
		<path class="st1" d="M1889.5,971.2c132.8,0,168.1-121.9,187.4-165.6"/>
		<line class="st1" x1="2088.5" y1="920.4" x2="2088.5" y2="871.2"/>
		<polyline class="st1" points="2088.5,931.7 2088.5,995.9 2088.5,1018.5 2088.5,1082.7 2076.9,1082.7 2076.9,1018.5 2076.9,995.9 
			2076.9,805.5 2076.9,772.9 2088.5,772.9 2088.5,799.9 		"/>
		<line class="st1" x1="2088.5" y1="860" x2="2088.5" y2="811.1"/>
		<line class="st1" x1="2049.5" y1="867.5" x2="2049.5" y2="995.9"/>
		<line class="st1" x1="2017.5" y1="914.8" x2="2017.5" y2="995.9"/>
		<line class="st1" x1="1985.5" y1="943.2" x2="1985.5" y2="995.9"/>
		<line class="st1" x1="1953.5" y1="960" x2="1953.5" y2="995.9"/>
		<line class="st1" x1="1921.5" y1="968.6" x2="1921.5" y2="995.9"/>
		<path class="st1" d="M2141.2,805.5c19.3,43.7,54.5,165.6,187.4,165.6"/>
		<line class="st1" x1="2129.6" y1="920.4" x2="2129.6" y2="871.2"/>
		<polyline class="st1" points="2129.6,931.7 2129.6,995.9 2129.6,1018.5 2129.6,1082.7 2141.2,1082.7 2141.2,1018.5 2141.2,995.9 
			2141.2,805.5 2141.2,772.9 2129.6,772.9 2129.6,799.9 		"/>
		<line class="st1" x1="2129.6" y1="860" x2="2129.6" y2="811.1"/>
		<line class="st1" x1="2168.6" y1="995.9" x2="2168.6" y2="867.5"/>
		<line class="st1" x1="2200.6" y1="995.9" x2="2200.6" y2="914.8"/>
		<line class="st1" x1="2232.6" y1="995.9" x2="2232.6" y2="943.2"/>
		<line class="st1" x1="2264.5" y1="995.9" x2="2264.5" y2="960"/>
		<line class="st1" x1="2296.6" y1="995.9" x2="2296.6" y2="968.6"/>
		<line class="st1" x1="2129.6" y1="931.7" x2="2088.5" y2="931.7"/>
		<line class="st1" x1="2129.6" y1="920.4" x2="2088.5" y2="920.4"/>
		<line class="st1" x1="2129.6" y1="860" x2="2088.5" y2="860"/>
		<line class="st1" x1="2129.6" y1="871.2" x2="2088.5" y2="871.2"/>
		<line class="st1" x1="2129.6" y1="799.9" x2="2088.5" y2="799.9"/>
		<line class="st1" x1="2129.6" y1="811.1" x2="2088.5" y2="811.1"/>
		<line class="st1" x1="2372.1" y1="995.9" x2="2396.4" y2="995.9"/>
		<polyline class="st1" points="1866.9,995.9 1953.5,995.9 1985.5,995.9 2017.4,995.9 2049.5,995.9 2076.9,995.9 		"/>
		<line class="st1" x1="1845.9" y1="995.9" x2="1821.7" y2="995.9"/>
	</g>
	<line class="st1" x1="2066.5" y1="1082.7" x2="2097" y2="1082.7"/>
	<line class="st1" x1="2120.1" y1="1082.7" x2="2150.6" y2="1082.7"/>
	<line class="st1" x1="2054.8" y1="1082.7" x2="2047.8" y2="1082.7"/>
	<line class="st1" x1="2171.3" y1="1082.7" x2="2164.3" y2="1082.7"/>
</g>
<g>
	<rect x="4340.7" y="930.8" class="st1" width="105.3" height="151.9"/>
	<rect x="4340.7" y="913.9" class="st1" width="105.3" height="16.8"/>
	<g>
		<path class="st1" d="M4393.3,836.1c0,0-11.4,12-29.5,22.7c-21.5,13.3-32.8,30.1-23,56"/>
		<path class="st1" d="M4445.8,914.7c9.8-25.9-1.5-42.7-23-56c-18.1-10.6-29.5-22.7-29.5-22.7v-27"/>
	</g>
	
		<rect x="4446" y="955.7" transform="matrix(-1 -1.224647e-16 1.224647e-16 -1 8937.5391 2038.3862)" class="st1" width="45.6" height="126.9"/>
	
		<rect x="4446" y="930.8" transform="matrix(-1 -1.224647e-16 1.224647e-16 -1 8937.5391 1886.5028)" class="st1" width="45.6" height="25"/>
	<g>
		<polyline class="st1" points="4475.8,992.3 4475.8,1017.3 4461.7,1017.3 4461.7,992.3 		"/>
		<path class="st1" d="M4461.7,992.3c0-3.9,3.2-7,7-7s7,3.2,7,7"/>
	</g>
	<g>
		<polyline class="st1" points="4475.8,1057.7 4475.8,1082.6 4461.7,1082.6 4461.7,1057.7 		"/>
		<path class="st1" d="M4461.7,1057.7c0-3.9,3.2-7,7-7s7,3.2,7,7"/>
	</g>
	<polygon class="st1" points="4491.6,1082.6 4537.2,1082.6 4537.2,963 4491.6,955.7 	"/>
	<g>
		<polyline class="st1" points="4521.4,992.3 4521.4,1017.3 4507.3,1017.3 4507.3,992.3 		"/>
		<path class="st1" d="M4507.3,992.3c0-3.9,3.2-7,7-7s7,3.2,7,7"/>
	</g>
	<g>
		<polyline class="st1" points="4521.4,1057.7 4521.4,1082.6 4507.3,1082.6 4507.3,1057.7 		"/>
		<path class="st1" d="M4507.3,1057.7c0-3.9,3.2-7,7-7s7,3.2,7,7"/>
	</g>
	<g>
		<polyline class="st1" points="4400.4,1057.7 4400.4,1082.6 4386.3,1082.6 4386.3,1057.7 		"/>
		<path class="st1" d="M4386.3,1057.7c0-3.9,3.2-7,7-7c3.9,0,7,3.2,7,7"/>
	</g>
	<g>
		<polyline class="st1" points="4400.4,992.3 4400.4,1017.3 4386.3,1017.3 4386.3,992.3 		"/>
		<path class="st1" d="M4386.3,992.3c0-3.9,3.2-7,7-7c3.9,0,7,3.2,7,7"/>
	</g>
	<g>
		<path class="st1" d="M4393.3,954.7c0,0-37.7,10.3-37.7,40.6c0,30.2,0,87.4,0,87.4"/>
		<path class="st1" d="M4393.3,954.7c0,0,37.7,10.3,37.7,40.6c0,30.2,0,87.4,0,87.4"/>
	</g>
	<line class="st1" x1="4431" y1="1017.2" x2="4355.7" y2="1017.2"/>
	<g>
		<path class="st1" d="M4468.8,903.5c0,0,22.8,6.9,22.8,27.3"/>
		<path class="st1" d="M4446,930.8c0-20.4,22.8-27.3,22.8-27.3v-12.3"/>
	</g>
	<g>
		<polyline class="st1" points="4576.8,1082.6 4552,1082.6 4565.5,893.7 4572.7,893.7 		"/>
		<polyline class="st1" points="4570,1082.6 4586.1,1082.6 4594.9,1082.6 4581.3,893.7 4571.4,893.7 		"/>
	</g>
	<line class="st1" x1="4559.5" y1="917.1" x2="4587.4" y2="917.1"/>
	<line class="st1" x1="4562.3" y1="893.7" x2="4584.6" y2="893.7"/>
	<line class="st2" x1="4558.2" y1="955.7" x2="4588.7" y2="955.7"/>
	<line class="st1" x1="4553.9" y1="1017.3" x2="4592.9" y2="1017.3"/>
	<g>
		<path class="st1" d="M4565,892.5c0,0-1.7-8.6,8.4-13"/>
		<path class="st1" d="M4581.8,892.5c0,0,1.7-8.6-8.4-13v-8.9"/>
	</g>
	<rect x="4295.1" y="955.7" class="st1" width="45.6" height="126.9"/>
	<rect x="4295.1" y="930.8" class="st1" width="45.6" height="25"/>
	<g>
		<polyline class="st1" points="4324.9,992.3 4324.9,1017.3 4310.9,1017.3 4310.9,992.3 		"/>
		<path class="st1" d="M4310.9,992.3c0-3.9,3.2-7,7-7c3.9,0,7,3.2,7,7"/>
	</g>
	<g>
		<polyline class="st1" points="4324.9,1057.7 4324.9,1082.6 4310.9,1082.6 4310.9,1057.7 		"/>
		<path class="st1" d="M4310.9,1057.7c0-3.9,3.2-7,7-7c3.9,0,7,3.2,7,7"/>
	</g>
	<polygon class="st1" points="4295.1,1082.6 4249.5,1082.6 4249.5,963 4295.1,955.7 	"/>
	<g>
		<polyline class="st1" points="4279.3,992.3 4279.3,1017.3 4265.3,1017.3 4265.3,992.3 		"/>
		<path class="st1" d="M4265.3,992.3c0-3.9,3.2-7,7-7c3.9,0,7,3.2,7,7"/>
	</g>
	<g>
		<polyline class="st1" points="4279.3,1057.7 4279.3,1082.6 4265.3,1082.6 4265.3,1057.7 		"/>
		<path class="st1" d="M4265.3,1057.7c0-3.9,3.2-7,7-7c3.9,0,7,3.2,7,7"/>
	</g>
	<g>
		<path class="st1" d="M4317.9,903.5c0,0-22.8,6.9-22.8,27.3"/>
		<path class="st1" d="M4340.7,930.8c0-20.4-22.8-27.3-22.8-27.3v-12.3"/>
	</g>
	<g>
		<polyline class="st1" points="4209.8,1082.6 4234.7,1082.6 4221.1,893.7 4213.9,893.7 		"/>
		<polyline class="st1" points="4216.6,1082.6 4191.8,1082.6 4205.3,893.7 4215.3,893.7 		"/>
	</g>
	<line class="st1" x1="4227.2" y1="917.1" x2="4199.3" y2="917.1"/>
	<line class="st1" x1="4224.4" y1="893.7" x2="4202.1" y2="893.7"/>
	<line class="st2" x1="4228.5" y1="955.7" x2="4198" y2="955.7"/>
	<line class="st1" x1="4232.7" y1="1017.3" x2="4193.7" y2="1017.3"/>
	<g>
		<path class="st1" d="M4221.6,892.5c0,0,1.7-8.6-8.4-13"/>
		<path class="st1" d="M4204.8,892.5c0,0-1.7-8.6,8.4-13v-8.9"/>
	</g>
	<line class="st1" x1="4372.5" y1="853.2" x2="4414.2" y2="853.2"/>
</g>
<g>
	<path class="st0" d="M4240.7,757.6h-29.8l-48.7,0l-24.7-16.8c-0.4-0.3-0.9-0.4-1.4-0.4h-15v-22.4c0-11.1-9.1-20.2-20.2-20.2
		c-11.1,0-20.2,9.1-20.2,20.2v22.4h-15c-0.5,0-1,0.2-1.4,0.4l-24.7,16.8l-48.7,0h-29.8c-1.4,0-2.5,1.1-2.5,2.5c0,0.1,0,0.2,0,0.3
		c0.1,9.6,7.9,17.4,17.6,17.6c0.1,0,0.2,0,0.3,0h14.5l3.2,9.4c0.3,0.8,0.9,1.4,1.8,1.6l60.2,14.4l-5.2,54.8
		c-0.1,0.9,0.4,1.8,1.1,2.3l7.8,5l-8.8,129.5h-8.4c-1.4,0-2.5,1.1-2.5,2.5v15.5h-4.8c-1.4,0-2.5,1.1-2.5,2.5v67.2
		c0,1.4,1.1,2.5,2.5,2.5h131c1.4,0,2.5-1.1,2.5-2.5v-67.2c0-1.4-1.1-2.5-2.5-2.5h-4.8v-15.5c0-1.4-1.1-2.5-2.5-2.5h-10l-7-103.3
		l-5.9-86.1l69.7-16.7c0.8-0.2,1.5-0.8,1.8-1.6l3.2-9.4h14.5c0.1,0,0.2,0,0.3,0c9.6-0.1,17.4-7.9,17.6-17.6c0-0.1,0-0.2,0-0.3
		C4243.2,758.7,4242.1,757.6,4240.7,757.6z"/>
	<g>
		<path class="st0" d="M4243.2,760.1c0,0.1,0,0.2,0,0.3c-0.1,9.6-7.9,17.4-17.6,17.6c-0.1,0-0.2,0-0.3,0h-14.5l-3.2,9.4
			c-0.3,0.8-1,1.4-1.8,1.6l-69.7,16.7l5.9,86.1l7,103.3h10c1.4,0,2.5,1.1,2.5,2.5v15.5h4.8c1.4,0,2.5,1.1,2.5,2.5v67.2
			c0,1.4-1.1,2.5-2.5,2.5h-131c-1.4,0-2.5-1.1-2.5-2.5v-67.2c0-1.4,1.1-2.5,2.5-2.5h4.8v-15.5c0-1.4,1.1-2.5,2.5-2.5h8.4l8.8-129.5
			l-7.8-5c-0.8-0.5-1.2-1.4-1.1-2.3l5.2-54.8l-60.2-14.4c-0.8-0.2-1.5-0.8-1.8-1.6l-3.2-9.4h-14.5c-0.1,0-0.2,0-0.3,0
			c-9.6-0.1-17.4-7.9-17.6-17.6c0-0.1,0-0.2,0-0.3c0-1.4,1.1-2.5,2.5-2.5h29.8l48.7,0l24.7-16.8c0.4-0.3,0.9-0.4,1.4-0.4h15v-22.4
			c0-11.1,9.1-20.2,20.2-20.2c11.1,0,20.2,9.1,20.2,20.2v22.4h15c0.5,0,1,0.1,1.4,0.4l24.7,16.8l48.7,0h29.8
			C4242.1,757.6,4243.2,758.7,4243.2,760.1z"/>
		<g>
			<polyline class="st1" points="4060.7,782.5 4053.5,858.4 4114,897.5 4140.8,914.8 			"/>
			<g>
				<polyline class="st1" points="4106.3,997.6 4093.9,997.6 4053.4,997.6 4067.8,786.4 				"/>
				<polyline class="st1" points="4132.1,783.4 4146.7,997.6 4106.3,997.6 4093.9,997.6 				"/>
				<rect x="4042.8" y="997.6" class="st1" width="116.3" height="18"/>
				<polygon class="st1" points="4166.4,1015.5 4035.4,1015.5 4035.4,1082.7 4044.6,1082.7 4049.8,1082.7 4166.4,1082.7 				"/>
			</g>
			<path class="st1" d="M4118.6,742.8v-24.9l0,0c0-9.8-7.9-17.7-17.7-17.7c-9.8,0-17.7,7.9-17.7,17.7l0,0v24.9"/>
			<g>
				<g>
					<polyline class="st1" points="4134.3,803.5 4205.3,786.5 4214.3,760.1 4161.4,760.1 4136.1,742.8 4067.4,742.8 					"/>
					<line class="st1" x1="4211" y1="760.1" x2="4240.7" y2="760.1"/>
					<path class="st1" d="M4240.7,760.1c0,8.5-6.9,15.3-15.3,15.3"/>
					<line class="st1" x1="4225.4" y1="775.4" x2="4209.1" y2="775.4"/>
				</g>
				<g>
					<polyline class="st1" points="4134.5,742.8 4067.4,742.8 4065.7,742.8 4040.4,760.1 3990.9,760.1 3987.5,760.1 3992.8,775.4 
						3996.6,786.5 4058.9,801.5 					"/>
					<line class="st1" x1="3990.9" y1="760.1" x2="3961.2" y2="760.1"/>
					<path class="st1" d="M3961.2,760.1c0,8.5,6.9,15.3,15.3,15.3"/>
					<line class="st1" x1="3992.8" y1="775.4" x2="3976.5" y2="775.4"/>
				</g>
			</g>
			<path class="st1" d="M4040.4,760.1l1.4,2.5c6.7,11.8,17.3,20.8,30.1,25.5l17.4,6.4"/>
			<g>
				<line class="st1" x1="4116.9" y1="958.2" x2="4117.6" y2="977.3"/>
				<line class="st1" x1="4114.4" y1="897.8" x2="4116.3" y2="944.2"/>
				<polyline class="st1" points="4109.6,775.4 4113.2,865.5 4139.5,892 				"/>
				<line class="st1" x1="4085.3" y1="950.6" x2="4084.7" y2="965.8"/>
				<line class="st1" x1="4088.1" y1="880.8" x2="4086.2" y2="929.3"/>
			</g>
		</g>
	</g>
</g>
<g>
	<path class="st1" d="M1197.9,420.8c0,0,4.4,20.4,10.9,53.7c2.2,11.3,4.6,24,7.2,37.9c1.1,5.8,2.2,11.8,3.3,18
		c1.1,5.8,2.1,11.9,3.2,18c1,5.9,2.1,11.9,3.2,18c1,5.9,2.1,11.9,3.1,18c1,5.9,2,11.9,3,18c1,5.9,1.9,11.9,2.9,18c1,6,1.9,12,2.8,18
		c0.9,6,1.8,12,2.7,18c0.9,6,1.8,12,2.6,18c0.9,6,1.7,12,2.5,18c0.8,6,1.6,12,2.4,18c0.8,6,1.5,12,2.3,18c0.7,6,1.4,12,2.1,18
		c0.7,6,1.3,12,2,18c0.6,6,1.3,12.1,1.8,18c0.2,1.7,0.3,3.5,0.5,5.2c0.4,4.3,0.8,8.6,1.1,12.9c0.5,6.1,1,12.1,1.4,18
		c0.4,6.1,0.8,12.1,1.2,18c0.4,6.1,0.7,12.1,0.9,18c0.3,6.1,0.5,12.1,0.6,18c0.1,6,0.2,11.9,0.2,17.6c0,0.1,0,0.3,0,0.4
		c0,6.2,0,12.2,0,18c0,6.2,0,12.2,0,18c0,6.2,0,12.2,0,18c0,6.2,0,12.3,0,18c0,6.3,0,12.3,0,18c0,6.3,0,12.3,0,18c0,6.4,0,12.4,0,18
		c0,6.5,0,12.5,0,18c0,6.7,0,12.7,0,18c0,7.4,0,13.4,0,18c0,7.9,0,11.8,0,11.8"/>
	<g>
		<line class="st1" x1="1311" y1="437.1" x2="1212.8" y2="437.1"/>
		<line class="st1" x1="1299.6" y1="494.4" x2="1224.1" y2="494.4"/>
		<path class="st1" d="M1212.8,437.1c2.8,13.7,6.8,33.4,11.3,57.3"/>
		<path class="st1" d="M1299.6,494.4c4.6-23.9,8.5-43.5,11.3-57.3"/>
	</g>
	<line class="st1" x1="1296.8" y1="512.4" x2="1226.9" y2="512.4"/>
	<line class="st1" x1="1293.5" y1="530.5" x2="1230.2" y2="530.5"/>
	<line class="st1" x1="1251.7" y1="548.5" x2="1233.5" y2="548.5"/>
	<line class="st1" x1="1290.3" y1="548.5" x2="1267.5" y2="548.5"/>
	<line class="st1" x1="1314.9" y1="548.5" x2="1312" y2="548.5"/>
	<line class="st1" x1="1211.7" y1="548.5" x2="1208.8" y2="548.5"/>
	<line class="st1" x1="1314.9" y1="566.5" x2="1308.9" y2="566.5"/>
	<line class="st1" x1="1270" y1="566.5" x2="1236.6" y2="566.5"/>
	<line class="st1" x1="1214.9" y1="566.5" x2="1208.8" y2="566.5"/>
	<line class="st1" x1="1217.9" y1="584.5" x2="1208.8" y2="584.5"/>
	<line class="st1" x1="1314.9" y1="584.5" x2="1305.8" y2="584.5"/>
	<line class="st1" x1="1256.3" y1="584.5" x2="1239.7" y2="584.5"/>
	<line class="st1" x1="1284" y1="584.5" x2="1267.5" y2="584.5"/>
	<line class="st1" x1="1281" y1="602.6" x2="1242.7" y2="602.6"/>
	<line class="st1" x1="1314.9" y1="602.6" x2="1302.8" y2="602.6"/>
	<line class="st1" x1="1220.9" y1="602.6" x2="1208.8" y2="602.6"/>
	<line class="st1" x1="1314.9" y1="620.6" x2="1299.9" y2="620.6"/>
	<line class="st1" x1="1278.1" y1="620.6" x2="1253.8" y2="620.6"/>
	<line class="st1" x1="1223.9" y1="620.6" x2="1208.8" y2="620.6"/>
	<line class="st1" x1="1275.3" y1="638.6" x2="1248.4" y2="638.6"/>
	<polyline class="st1" points="1314.9,638.6 1305.8,638.6 1297.1,638.6 	"/>
	<line class="st1" x1="1226.7" y1="638.6" x2="1208.8" y2="638.6"/>
	<line class="st1" x1="1314.9" y1="656.7" x2="1294.4" y2="656.7"/>
	<line class="st1" x1="1272.6" y1="656.7" x2="1251.2" y2="656.7"/>
	<line class="st1" x1="1219.1" y1="656.7" x2="1208.8" y2="656.7"/>
	<line class="st1" x1="1270" y1="674.7" x2="1253.8" y2="674.7"/>
	<line class="st1" x1="1232" y1="674.7" x2="1208.8" y2="674.7"/>
	<line class="st1" x1="1314.9" y1="674.7" x2="1291.8" y2="674.7"/>
	<line class="st1" x1="1314.9" y1="692.7" x2="1297.7" y2="692.7"/>
	<line class="st1" x1="1234.5" y1="692.7" x2="1219.1" y2="692.7"/>
	<line class="st1" x1="1267.5" y1="692.7" x2="1256.3" y2="692.7"/>
	<line class="st1" x1="1307.4" y1="710.8" x2="1286.9" y2="710.8"/>
	<line class="st1" x1="1236.9" y1="710.8" x2="1208.8" y2="710.8"/>
	<line class="st1" x1="1265.1" y1="710.8" x2="1258.7" y2="710.8"/>
	<line class="st1" x1="1314.9" y1="728.8" x2="1284.6" y2="728.8"/>
	<line class="st1" x1="1239.2" y1="728.8" x2="1208.8" y2="728.8"/>
	<line class="st1" x1="1262.8" y1="728.8" x2="1260.9" y2="728.8"/>
	<line class="st1" x1="1232" y1="746.8" x2="1208.8" y2="746.8"/>
	<line class="st1" x1="1296" y1="746.8" x2="1282.5" y2="746.8"/>
	<line class="st1" x1="1314.9" y1="746.8" x2="1307.4" y2="746.8"/>
	<line class="st1" x1="1243.3" y1="764.9" x2="1208.8" y2="764.9"/>
	<line class="st1" x1="1300.2" y1="764.9" x2="1280.5" y2="764.9"/>
	<line class="st1" x1="1219.1" y1="782.9" x2="1208.8" y2="782.9"/>
	<line class="st1" x1="1245.1" y1="782.9" x2="1229.4" y2="782.9"/>
	<line class="st1" x1="1286.9" y1="782.9" x2="1278.7" y2="782.9"/>
	<line class="st2" x1="1314.9" y1="782.9" x2="1297.7" y2="782.9"/>
	<line class="st1" x1="1314.9" y1="800.9" x2="1277.1" y2="800.9"/>
	<line class="st1" x1="1246.7" y1="800.9" x2="1208.8" y2="800.9"/>
	<line class="st1" x1="1248.1" y1="819" x2="1208.8" y2="819"/>
	<line class="st1" x1="1293.8" y1="819" x2="1275.6" y2="819"/>
	<line class="st1" x1="1314.9" y1="819" x2="1307.2" y2="819"/>
	<line class="st1" x1="1224" y1="837" x2="1208.8" y2="837"/>
	<polyline class="st1" points="1252.7,837 1249.3,837 1237.9,837 	"/>
	<polyline class="st1" points="1293,837 1272.8,837 1271,837 	"/>
	<polyline class="st1" points="1251.8,855 1250.2,855 1208.8,855 	"/>
	<polyline class="st1" points="1314.9,855 1273.6,855 1272,855 	"/>
	<line class="st1" x1="1250.8" y1="873" x2="1251.2" y2="873"/>
	<line class="st1" x1="1208.8" y1="873" x2="1234.2" y2="873"/>
	<polyline class="st1" points="1272.5,873 1273,873 1290.2,873 	"/>
	<line class="st2" x1="1314.9" y1="891.1" x2="1272.8" y2="891.1"/>
	<line class="st1" x1="1220.5" y1="891.1" x2="1208.8" y2="891.1"/>
	<line class="st1" x1="1251" y1="891.1" x2="1233.9" y2="891.1"/>
	<line class="st2" x1="1314.9" y1="909.1" x2="1272.8" y2="909.1"/>
	<line class="st1" x1="1251" y1="909.1" x2="1228.5" y2="909.1"/>
	<line class="st2" x1="1251" y1="927.1" x2="1208.8" y2="927.1"/>
	<line class="st2" x1="1314.9" y1="927.1" x2="1272.8" y2="927.1"/>
	<line class="st2" x1="1251" y1="945.2" x2="1208.8" y2="945.2"/>
	<line class="st2" x1="1314.9" y1="945.2" x2="1272.8" y2="945.2"/>
	<line class="st2" x1="1251" y1="963.2" x2="1208.8" y2="963.2"/>
	<line class="st2" x1="1314.9" y1="963.2" x2="1272.8" y2="963.2"/>
	<line class="st2" x1="1251" y1="981.2" x2="1208.8" y2="981.2"/>
	<line class="st1" x1="1314.9" y1="981.2" x2="1272.8" y2="981.2"/>
	<line class="st1" x1="1251" y1="999.3" x2="1208.8" y2="999.3"/>
	<line class="st1" x1="1314.9" y1="999.3" x2="1272.8" y2="999.3"/>
	<line class="st1" x1="1314.9" y1="1017.3" x2="1272.8" y2="1017.3"/>
	<line class="st1" x1="1251" y1="1017.3" x2="1208.8" y2="1017.3"/>
	<line class="st1" x1="1251" y1="1035.3" x2="1208.8" y2="1035.3"/>
	<line class="st1" x1="1314.9" y1="1035.3" x2="1272.8" y2="1035.3"/>
	<line class="st1" x1="1251" y1="1053.3" x2="1208.8" y2="1053.3"/>
	<line class="st1" x1="1314.9" y1="1053.3" x2="1272.8" y2="1053.3"/>
	<line class="st1" x1="1251" y1="1071.4" x2="1208.8" y2="1071.4"/>
	<line class="st1" x1="1314.9" y1="1071.4" x2="1272.8" y2="1071.4"/>
	<polyline class="st1" points="1325.8,1071.4 1325.8,1053.3 1325.8,1035.3 1325.8,1017.3 1325.8,999.3 1325.8,981.2 1325.8,963.2 
		1325.8,945.2 1325.8,927.1 1325.8,909.1 1325.8,891.1 1325.8,873 1325.8,855 1325.8,837 1325.8,819 1325.8,800.9 1325.8,782.9 
		1325.8,764.9 1325.8,746.8 1325.8,728.8 1325.8,710.8 1325.8,692.7 1325.8,674.7 1325.8,656.7 1325.8,638.6 1325.8,620.6 
		1325.8,602.6 1325.8,584.5 1325.8,566.5 1325.8,548.5 1325.8,530.5 1325.8,512.4 1325.8,474.5 1325.8,457.3 	"/>
	<polyline class="st1" points="1325.8,1083.1 1325.8,1071.4 1325.8,1053.3 1325.8,1035.3 1325.8,1017.3 1325.8,999.3 1325.8,981.2 
		1325.8,963.2 1325.8,945.2 1325.8,927.1 1325.8,909.1 1325.8,891.1 1325.8,873 1325.8,855 1325.8,837 1325.8,819 1325.8,800.9 
		1325.8,782.9 1325.8,764.9 1325.8,746.8 1325.8,728.8 1325.8,710.8 1325.8,692.7 1325.8,674.7 1325.8,656.7 1325.8,638.6 
		1325.8,620.6 1325.8,602.6 1325.8,584.5 1325.8,566.5 1325.8,548.5 1325.8,530.5 1325.8,512.4 1325.8,474.5 1325.8,457.3 
		1325.8,420.8 1314.9,420.8 1208.8,420.8 1197.9,420.8 1197.9,474.5 1197.9,512.4 1197.9,530.5 1197.9,548.5 1197.9,566.5 
		1197.9,584.5 1197.9,602.6 1197.9,620.6 1197.9,638.6 1197.9,656.7 1197.9,674.7 1197.9,692.7 1197.9,710.8 1197.9,728.8 
		1197.9,746.8 1197.9,764.9 1197.9,782.9 1197.9,800.9 1197.9,819 1197.9,837 1197.9,855 1197.9,873 1197.9,891.1 1197.9,909.1 
		1197.9,927.1 1197.9,945.2 1197.9,963.2 1197.9,981.2 1197.9,999.3 1197.9,1017.3 1197.9,1035.3 1197.9,1053.3 1197.9,1071.4 
		1197.9,1083.1 	"/>
	<path class="st1" d="M1261.9,1083.1c0,0,0-3.8,0-11.8c0-4.6,0-10.6,0-18c0-5.3,0-11.3,0-18c0-5.5,0-11.5,0-18c0-5.6,0-11.6,0-18
		c0-5.7,0-11.7,0-18c0-5.8,0-11.8,0-18c0-5.8,0-11.8,0-18c0-5.8,0-11.8,0-18c0-5.8,0-11.8,0-18c0-5.8,0-11.9,0-18c0-0.1,0-0.3,0-0.4
		c0-5.7,0.1-11.6,0.2-17.6c0.1-5.9,0.3-11.9,0.6-18c0.2-5.9,0.5-11.9,0.9-18c0.3-5.9,0.7-11.9,1.2-18c0.4-5.9,0.9-12,1.4-18
		c0.4-4.3,0.7-8.6,1.1-12.9c0.2-1.7,0.3-3.4,0.5-5.2c0.6-6,1.2-12,1.8-18c0.6-6,1.3-12,2-18c0.7-6,1.4-12,2.1-18
		c0.7-6,1.5-12,2.3-18c0.8-6,1.6-12,2.4-18c0.8-6,1.6-12,2.5-18c0.9-6,1.7-12.1,2.6-18c0.9-6.1,1.8-12.1,2.7-18
		c0.9-6.1,1.9-12.1,2.8-18c1-6.1,1.9-12.1,2.9-18c1-6.1,2-12.1,3-18c1-6.1,2.1-12.1,3.1-18c1.1-6.1,2.1-12.1,3.2-18
		c1.1-6.2,2.2-12.2,3.2-18c1.1-6.2,2.2-12.2,3.3-18c2.6-13.9,5-26.7,7.2-37.9c6.5-33.2,10.9-53.7,10.9-53.7"/>
</g>
<g>
	<polyline class="st1" points="1416.4,205.4 1436.6,205.4 1436.6,370.9 	"/>
	<polyline class="st1" points="1396.3,571.4 1396.3,314.3 1416.4,314.3 	"/>
	<line class="st1" x1="1396.3" y1="617.6" x2="1396.3" y2="595.9"/>
	<polyline class="st1" points="1335.8,1095.8 1335.8,813.4 1356,813.4 	"/>
	<line class="st1" x1="1356" y1="813.4" x2="1356" y2="617.6"/>
	<rect x="1497.1" y="865.5" class="st1" width="20.2" height="230.3"/>
	<line class="st1" x1="1335.8" y1="970.6" x2="1335.8" y2="1095.8"/>
	<polyline class="st1" points="1356,1095.8 1356,617.6 1376.1,617.6 	"/>
	<polyline class="st1" points="1376.1,650.5 1376.1,617.6 1376.1,393 1396.3,393 	"/>
	<line class="st1" x1="1376.1" y1="737.3" x2="1376.1" y2="669.4"/>
	<line class="st1" x1="1376.1" y1="822.4" x2="1376.1" y2="771.7"/>
	<line class="st1" x1="1396.3" y1="840.2" x2="1396.3" y2="1095.8"/>
	<line class="st1" x1="1396.3" y1="722" x2="1396.3" y2="813.4"/>
	<line class="st1" x1="1396.3" y1="617.6" x2="1396.3" y2="697.4"/>
	<line class="st1" x1="1416.4" y1="735.4" x2="1416.4" y2="1017"/>
	<line class="st1" x1="1416.4" y1="669.4" x2="1416.4" y2="750.6"/>
	<line class="st1" x1="1416.4" y1="553.2" x2="1416.4" y2="650.5"/>
	<line class="st1" x1="1416.4" y1="504.8" x2="1416.4" y2="527.5"/>
	<polyline class="st1" points="1416.4,33.9 1416.4,350.5 1416.4,370.9 1416.4,468.9 	"/>
	<line class="st1" x1="1436.6" y1="895.4" x2="1436.6" y2="944.6"/>
	<line class="st1" x1="1436.6" y1="705.8" x2="1436.6" y2="874.7"/>
	<polyline class="st1" points="1436.6,411.5 1436.6,532.5 1436.6,617.6 1436.6,686.9 	"/>
	<polyline class="st1" points="1456.8,589.9 1456.8,370.9 1456.8,532.5 1456.8,370.9 1436.6,370.9 1436.6,393 	"/>
	<line class="st1" x1="1456.8" y1="757.9" x2="1456.8" y2="626.8"/>
	<line class="st1" x1="1456.8" y1="820.2" x2="1456.8" y2="779.7"/>
	<line class="st1" x1="1456.8" y1="922.5" x2="1456.8" y2="844.9"/>
	<polyline class="st1" points="1476.9,710 1476.9,669.4 1497.1,669.4 1497.1,865.5 	"/>
	<polyline class="st1" points="1476.9,840.2 1476.9,799.6 1476.9,728.2 	"/>
	<line class="st1" x1="1476.9" y1="1095.8" x2="1476.9" y2="865.5"/>
	<line class="st1" x1="1497.1" y1="865.5" x2="1497.1" y2="1095.8"/>
	<line class="st1" x1="1335.8" y1="1095.8" x2="1507.2" y2="1095.8"/>
	<rect x="1315.6" y="970.6" class="st1" width="20.2" height="125.2"/>
	<polyline class="st1" points="1476.9,669.4 1476.9,480.4 1457.3,480.4 	"/>
</g>
<g>
	<rect x="3381.7" y="347.8" class="st1" width="40.8" height="734"/>
	<polyline class="st1" points="3422.5,379.6 3443.6,379.6 3443.6,347.8 3422.5,347.8 3381.7,347.8 3360.6,347.8 3360.6,379.6 
		3381.7,379.6 	"/>
	<rect x="3366.2" y="321.9" class="st1" width="71.9" height="25.8"/>
	<g>
		<polyline class="st1" points="3402.5,321.9 3383.3,321.9 3392.9,219.1 3402.7,219.1 		"/>
		<path class="st1" d="M3402.5,113.1c0,0-1.7,208.9-0.8,208.9h19.2l-9.6-102.8h-9.8"/>
	</g>
	<g>
		<polyline class="st1" points="3381.7,379.6 3360.6,379.6 3348.7,379.6 3348.7,495.8 3381.7,495.8 3422.5,495.8 3455.6,495.8 
			3455.6,379.6 3443.6,379.6 3422.5,379.6 		"/>
		<polyline class="st1" points="3422.5,857.2 3466.6,857.2 3466.6,495.8 3455.6,495.8 3422.5,495.8 3381.7,495.8 3348.7,495.8 
			3337.7,495.8 3337.7,857.2 3381.7,857.2 		"/>
		<polyline class="st1" points="3381.7,857.2 3337.7,857.2 3315.7,857.2 3315.7,1081.8 3381.7,1081.8 3422.5,1081.8 3488.5,1081.8 
			3488.5,857.2 3466.6,857.2 3422.5,857.2 		"/>
		<polyline class="st1" points="3488.8,936.5 3512.1,936.5 3512.1,1081.8 3488.8,1081.8 3422.5,1081.8 3381.7,1081.8 3315.4,1081.8 
			3292,1081.8 3292,936.5 3315.4,936.5 		"/>
	</g>
	<line class="st1" x1="3348.7" y1="777.6" x2="3348.7" y2="842.9"/>
	<line class="st1" x1="3348.7" y1="679.8" x2="3348.7" y2="757.7"/>
	<line class="st1" x1="3348.7" y1="571" x2="3348.7" y2="654.3"/>
	<line class="st1" x1="3348.7" y1="509.5" x2="3348.7" y2="549.5"/>
	<line class="st1" x1="3359.7" y1="815.1" x2="3359.7" y2="842.9"/>
	<line class="st1" x1="3359.7" y1="667.6" x2="3359.7" y2="797.1"/>
	<line class="st1" x1="3359.7" y1="509.5" x2="3359.7" y2="620.3"/>
	<line class="st1" x1="3370.7" y1="797.1" x2="3370.7" y2="842.9"/>
	<line class="st1" x1="3370.7" y1="718.8" x2="3370.7" y2="782.9"/>
	<line class="st1" x1="3370.7" y1="576.6" x2="3370.7" y2="696.8"/>
	<line class="st1" x1="3370.7" y1="509.5" x2="3370.7" y2="560.7"/>
	<line class="st1" x1="3394.9" y1="509.5" x2="3394.9" y2="800.7"/>
	<line class="st1" x1="3408.7" y1="509.5" x2="3408.7" y2="800.7"/>
	<line class="st1" x1="3359.7" y1="426.7" x2="3359.7" y2="390.9"/>
	<line class="st1" x1="3359.7" y1="483.8" x2="3359.7" y2="444.7"/>
	<line class="st1" x1="3370.7" y1="402.4" x2="3370.7" y2="390.9"/>
	<line class="st1" x1="3370.7" y1="456.4" x2="3370.7" y2="417.7"/>
	<line class="st1" x1="3370.7" y1="483.8" x2="3370.7" y2="472.7"/>
	<polyline class="st1" points="3394.9,483.8 3394.9,453.1 3394.9,420.4 3394.9,357 	"/>
	<polyline class="st1" points="3408.7,483.8 3408.7,469.4 3408.7,455.7 3408.7,407.1 3408.7,385.1 3408.7,357 	"/>
	<line class="st1" x1="3370.7" y1="357.7" x2="3370.7" y2="370.2"/>
	<line class="st1" x1="3348.7" y1="892.3" x2="3348.7" y2="873.4"/>
	<line class="st1" x1="3359.7" y1="882" x2="3359.7" y2="873.4"/>
	<line class="st1" x1="3359.7" y1="1069.8" x2="3359.7" y2="903.8"/>
	<line class="st1" x1="3337.7" y1="887.2" x2="3337.7" y2="873.4"/>
	<line class="st1" x1="3326.7" y1="1069.8" x2="3326.7" y2="873.4"/>
	<line class="st1" x1="3303.3" y1="1069.8" x2="3303.3" y2="947"/>
	<line class="st1" x1="3370.7" y1="916.8" x2="3370.7" y2="873.4"/>
	<line class="st1" x1="3381.7" y1="812.5" x2="3422.5" y2="812.5"/>
	<line class="st1" x1="3394.9" y1="907.6" x2="3394.9" y2="827"/>
	<line class="st1" x1="3408.7" y1="846.1" x2="3408.7" y2="827"/>
	<line class="st1" x1="3408.7" y1="893.8" x2="3408.7" y2="862.8"/>
	<line class="st1" x1="3454.9" y1="732.4" x2="3454.9" y2="842.9"/>
	<line class="st1" x1="3454.9" y1="648" x2="3454.9" y2="700.3"/>
	<line class="st1" x1="3454.9" y1="580.1" x2="3454.9" y2="628.2"/>
	<line class="st1" x1="3454.9" y1="509.5" x2="3454.9" y2="564.9"/>
	<line class="st1" x1="3443.8" y1="700.3" x2="3443.8" y2="842.9"/>
	<line class="st1" x1="3443.8" y1="636.7" x2="3443.8" y2="683.7"/>
	<line class="st1" x1="3443.8" y1="546.7" x2="3443.8" y2="620.3"/>
	<line class="st1" x1="3443.8" y1="509.5" x2="3443.8" y2="535.1"/>
	<line class="st1" x1="3432.8" y1="787.8" x2="3432.8" y2="842.9"/>
	<line class="st1" x1="3432.8" y1="714.8" x2="3432.8" y2="755.3"/>
	<line class="st1" x1="3432.8" y1="610.6" x2="3432.8" y2="700.3"/>
	<line class="st1" x1="3432.8" y1="509.5" x2="3432.8" y2="589.6"/>
	<line class="st1" x1="3443.8" y1="414.1" x2="3443.8" y2="390.9"/>
	<line class="st1" x1="3443.8" y1="483.8" x2="3443.8" y2="439.4"/>
	<line class="st1" x1="3432.8" y1="440.7" x2="3432.8" y2="390.9"/>
	<line class="st1" x1="3432.8" y1="483.8" x2="3432.8" y2="459.1"/>
	<line class="st1" x1="3432.8" y1="357.7" x2="3432.8" y2="370.2"/>
	<line class="st1" x1="3454.9" y1="1069.8" x2="3454.9" y2="873.4"/>
	<line class="st1" x1="3443.8" y1="1069.8" x2="3443.8" y2="873.4"/>
	<line class="st1" x1="3465.9" y1="1069.8" x2="3465.9" y2="873.4"/>
	<line class="st1" x1="3476.9" y1="1069.8" x2="3476.9" y2="873.4"/>
	<line class="st1" x1="3500.2" y1="1069.8" x2="3500.2" y2="947"/>
	<line class="st1" x1="3432.8" y1="1069.8" x2="3432.8" y2="873.4"/>
</g>
<g>
	<path class="st0" d="M1965.9,1082.7c0,1.4-1.1,2.5-2.5,2.5h-173.7c-1.4,0-2.5-1.1-2.5-2.5s1.1-2.5,2.5-2.5h15.1V640.3c0,0,0,0,0,0
		v-4c0-0.1,0-0.3,0-0.4c0.2-25.7,0.3-60.9,0-63.6c-0.2-1.2,0.5-2.5,1.8-2.9c1.3-0.4,2.7,0.4,3.1,1.7c0.3,1.2,0.4,22.7,0.1,63.9
		c6.2,4.4,36.7,26.8,68.5,67.8c13.1,16.9,24.9,34.8,35.1,53.6h26.7c1,0,1.9,0.6,2.3,1.5c0.4,0.9,0.2,2-0.4,2.7l-17,18.7
		c1.7,3.7,3.4,7.4,5,11.1c10.4,24.1,18.4,49.4,24,75.4c0,0,0,0,0,0c0.1,0.3,0.2,0.6,0.2,0.9c3.4,15.9,5.9,32.1,7.4,48.6
		c0.1,0.8,9.8,86.8-15.6,164.8h17.3C1964.8,1080.2,1965.9,1081.3,1965.9,1082.7z"/>
	<g>
		<path class="st1" d="M1942.6,1082.7c26.8-79.2,16.6-167.1,16.6-167.1c-18.3-190.9-151.8-279.3-151.8-279.3v446.4"/>
		<path class="st1" d="M1807.3,571.8c0.4,1.5,0,68.5,0,68.5"/>
		<line class="st1" x1="1807.5" y1="866.8" x2="1951.7" y2="866.8"/>
		<line class="st1" x1="1807.5" y1="974.8" x2="1960.2" y2="974.8"/>
		<g>
			<line class="st1" x1="1926.3" y1="994.9" x2="1942.4" y2="994.9"/>
			<line class="st1" x1="1823.5" y1="994.9" x2="1910.9" y2="994.9"/>
		</g>
		<g>
			<line class="st1" x1="1923.8" y1="1017.5" x2="1938.3" y2="1017.5"/>
			<line class="st1" x1="1860.4" y1="1017.5" x2="1910.4" y2="1017.5"/>
			<line class="st1" x1="1823.5" y1="1017.5" x2="1845" y2="1017.5"/>
		</g>
		<g>
			<line class="st1" x1="1868.4" y1="1040" x2="1935" y2="1040"/>
			<line class="st1" x1="1823.5" y1="1040" x2="1851.5" y2="1040"/>
		</g>
		<line class="st1" x1="1823.5" y1="1062.6" x2="1930.6" y2="1062.6"/>
		<line class="st1" x1="1823.5" y1="887" x2="1937.6" y2="887"/>
		<g>
			<line class="st1" x1="1924" y1="909.5" x2="1940.3" y2="909.5"/>
			<line class="st1" x1="1823.5" y1="909.5" x2="1906.6" y2="909.5"/>
		</g>
		<g>
			<line class="st1" x1="1870" y1="932.1" x2="1943.3" y2="932.1"/>
			<line class="st1" x1="1823.5" y1="932.1" x2="1846.9" y2="932.1"/>
		</g>
		<line class="st1" x1="1823.5" y1="954.6" x2="1943.6" y2="954.6"/>
		<g>
			<line class="st1" x1="1888.3" y1="779" x2="1902.9" y2="779"/>
			<line class="st1" x1="1822.7" y1="779" x2="1874.1" y2="779"/>
		</g>
		<line class="st1" x1="1823.5" y1="801.6" x2="1914.5" y2="801.6"/>
		<g>
			<line class="st1" x1="1904.5" y1="824.2" x2="1922.8" y2="824.2"/>
			<line class="st1" x1="1823.5" y1="824.2" x2="1889.9" y2="824.2"/>
		</g>
		<g>
			<line class="st1" x1="1882.6" y1="846.7" x2="1929.9" y2="846.7"/>
			<line class="st1" x1="1849.1" y1="846.7" x2="1864.8" y2="846.7"/>
			<line class="st1" x1="1823.5" y1="846.7" x2="1835.9" y2="846.7"/>
		</g>
		<line class="st1" x1="1963.4" y1="1082.7" x2="1789.7" y2="1082.7"/>
		<polyline class="st1" points="1807.3,758.9 1940.2,758.9 1922.1,778.8 		"/>
	</g>
</g>
<g>
	<line class="st1" x1="3280.4" y1="1084.2" x2="3173.8" y2="1084.2"/>
	
		<rect x="3209.6" y="584.9" transform="matrix(-1 -1.224647e-16 1.224647e-16 -1 6472.7656 1180.0947)" class="st1" width="53.6" height="10.3"/>
	<polygon class="st1" points="3190.4,542 3282.4,542 3274.5,584.9 3198.3,584.9 	"/>
	<line class="st1" x1="3279.4" y1="558.3" x2="3193.4" y2="558.3"/>
	
		<rect x="3209.6" y="529" transform="matrix(-1 -1.224647e-16 1.224647e-16 -1 6472.7656 1070.9644)" class="st1" width="53.6" height="13"/>
	<polygon class="st1" points="3222.3,529 3250.5,529 3250.5,446.3 3236.4,446.3 3222.3,446.3 	"/>
	<line class="st1" x1="3236.4" y1="257.7" x2="3236.4" y2="376.1"/>
	<line class="st1" x1="3256.2" y1="595.2" x2="3268.7" y2="1082.8"/>
	<line class="st1" x1="3216.5" y1="596.6" x2="3204" y2="1084.2"/>
	<polygon class="st1" points="3230.2,376.1 3242.6,376.1 3242.6,446.3 3236.4,446.3 3230.2,446.3 	"/>
	<line class="st1" x1="3250.5" y1="989.2" x2="3252.4" y2="1084.2"/>
	<line class="st1" x1="3247" y1="806.9" x2="3249.7" y2="948.5"/>
	<line class="st1" x1="3242.9" y1="596.6" x2="3246.5" y2="785.2"/>
	<line class="st1" x1="3223.5" y1="923.5" x2="3220.4" y2="1084.2"/>
	<line class="st1" x1="3229.9" y1="596.6" x2="3224.5" y2="872.5"/>
</g>
<g>
	
		<rect x="709.4" y="759.5" transform="matrix(-1.836970e-16 1 -1 -1.836970e-16 1516.1051 76.4422)" class="st1" width="20.8" height="73.5"/>
	<rect x="602.7" y="572.1" class="st1" width="55.9" height="52.4"/>
	<polyline class="st1" points="613.4,572.1 613.4,529.4 630.7,492.8 647.9,529.4 647.9,572.1 	"/>
	<line class="st1" x1="630.7" y1="492.8" x2="630.7" y2="445.2"/>
	<line class="st1" x1="630.7" y1="624.5" x2="630.7" y2="529.4"/>
	<line class="st1" x1="662.2" y1="828.6" x2="662.2" y2="896.8"/>
	<line class="st1" x1="662.2" y1="759.9" x2="662.2" y2="808.7"/>
	<polyline class="st1" points="648.5,624.5 665.8,624.5 665.8,710.1 	"/>
	<line class="st1" x1="641.4" y1="830.8" x2="641.4" y2="750.9"/>
	<line class="st1" x1="641.4" y1="912.3" x2="641.4" y2="852.5"/>
	<line class="st1" x1="599.7" y1="830.8" x2="599.7" y2="773.8"/>
	<line class="st1" x1="599.7" y1="902.3" x2="599.7" y2="845.2"/>
	<line class="st1" x1="599.7" y1="941.1" x2="599.7" y2="916.7"/>
	<line class="st1" x1="620.5" y1="895.1" x2="620.5" y2="957.1"/>
	<line class="st1" x1="620.5" y1="770.3" x2="620.5" y2="872.4"/>
	<polyline class="st1" points="596.1,710.1 596.1,624.5 613.4,624.5 	"/>
	<line class="st1" x1="593.7" y1="710.1" x2="674.5" y2="710.1"/>
	<polyline class="st1" points="665.8,710.1 683.1,710.1 683.1,1082.7 665.8,1082.7 671,1082.7 590.3,1082.7 596.1,1082.7 
		578.8,1082.7 578.8,710.1 596.1,710.1 	"/>
	<line class="st1" x1="683.1" y1="740.5" x2="683.1" y2="761.3"/>
	<line class="st1" x1="620.5" y1="757.2" x2="620.5" y2="710.1"/>
	<line class="st1" x1="599.7" y1="753.2" x2="599.7" y2="710.1"/>
	<line class="st1" x1="641.4" y1="729.8" x2="641.4" y2="710.1"/>
	<line class="st1" x1="662.2" y1="746.4" x2="662.2" y2="710.1"/>
	<line class="st1" x1="599.7" y1="953.1" x2="599.7" y2="1082.7"/>
	<line class="st1" x1="641.4" y1="926.1" x2="641.4" y2="1082.7"/>
	<line class="st1" x1="662.2" y1="912.3" x2="662.2" y2="1082.7"/>
	<line class="st1" x1="620.5" y1="972.3" x2="620.5" y2="1082.7"/>
	<line class="st1" x1="613.4" y1="529.4" x2="647.9" y2="529.4"/>
	<line class="st1" x1="620.5" y1="652" x2="620.5" y2="685.6"/>
	<line class="st1" x1="641.4" y1="675.1" x2="641.4" y2="711.1"/>
	<line class="st1" x1="620.5" y1="638.3" x2="620.5" y2="624.5"/>
	<line class="st1" x1="641.4" y1="659.6" x2="641.4" y2="624.5"/>
	<rect x="780.7" y="572.1" class="st1" width="55.9" height="52.4"/>
	<polyline class="st1" points="791.4,572.1 791.4,529.4 808.7,492.8 826,529.4 826,572.1 	"/>
	<line class="st1" x1="808.7" y1="492.8" x2="808.7" y2="445.2"/>
	<line class="st1" x1="808.7" y1="624.5" x2="808.7" y2="529.4"/>
	<line class="st1" x1="840.3" y1="820.5" x2="840.3" y2="880.5"/>
	<line class="st1" x1="840.3" y1="759.9" x2="840.3" y2="802.9"/>
	<polyline class="st1" points="826.6,624.5 843.9,624.5 843.9,710.1 	"/>
	<line class="st1" x1="819.4" y1="830.8" x2="819.4" y2="788.7"/>
	<line class="st1" x1="819.4" y1="773.8" x2="819.4" y2="717.8"/>
	<line class="st1" x1="819.4" y1="912.3" x2="819.4" y2="852.5"/>
	<line class="st1" x1="777.7" y1="791.3" x2="777.7" y2="739.2"/>
	<line class="st1" x1="777.7" y1="877.9" x2="777.7" y2="811"/>
	<line class="st1" x1="777.7" y1="924.6" x2="777.7" y2="894.6"/>
	<line class="st1" x1="798.6" y1="904.2" x2="798.6" y2="957.1"/>
	<line class="st1" x1="798.6" y1="797.6" x2="798.6" y2="884.8"/>
	<polyline class="st1" points="774.2,710.1 774.2,624.5 791.4,624.5 	"/>
	<line class="st1" x1="771.7" y1="710.1" x2="852.5" y2="710.1"/>
	<polyline class="st1" points="843.9,710.1 861.1,710.1 861.1,1082.7 843.9,1082.7 849.1,1082.7 768.3,1082.7 774.2,1082.7 
		756.9,1082.7 756.9,710.1 774.2,710.1 	"/>
	<line class="st1" x1="756.9" y1="744.4" x2="756.9" y2="765.2"/>
	<line class="st1" x1="861.1" y1="740.5" x2="861.1" y2="761.3"/>
	<line class="st1" x1="798.6" y1="757.2" x2="798.6" y2="710.1"/>
	<line class="st1" x1="777.7" y1="753.2" x2="777.7" y2="710.1"/>
	<line class="st1" x1="819.4" y1="729.8" x2="819.4" y2="710.1"/>
	<line class="st1" x1="840.3" y1="746.4" x2="840.3" y2="710.1"/>
	<line class="st1" x1="777.7" y1="946.5" x2="777.7" y2="1082.7"/>
	<line class="st1" x1="819.4" y1="926.1" x2="819.4" y2="1082.7"/>
	<line class="st1" x1="840.3" y1="900.7" x2="840.3" y2="957.1"/>
	<line class="st1" x1="798.6" y1="972.3" x2="798.6" y2="1082.7"/>
	<line class="st1" x1="791.4" y1="529.4" x2="826" y2="529.4"/>
	<line class="st1" x1="798.6" y1="690.5" x2="798.6" y2="713.8"/>
	<line class="st1" x1="819.4" y1="690.5" x2="819.4" y2="711.1"/>
	<line class="st1" x1="798.6" y1="659.6" x2="798.6" y2="624.5"/>
	<line class="st1" x1="819.4" y1="670.9" x2="819.4" y2="624.5"/>
</g>
<g>
	<path class="st0" d="M607.2,1082.6c0,1.3-1.1,2.3-2.3,2.3H250.7c-0.2,0-0.3,0.1-0.5,0.1c-0.2,0-0.3,0-0.5-0.1h-6.8
		c-1.3,0-2.3-1.1-2.3-2.3c0-1.3,1.1-2.3,2.3-2.3h5v-50.9h-5.6c-1.3,0-2.3-1.1-2.3-2.3c0-1.1,0.7-2,1.7-2.3c0.3-0.2,0.7-0.3,1.1-0.3
		h5.2v-50.8h-6.1c-1.3,0-2.3-1.1-2.3-2.3c0-1.3,1.1-2.3,2.3-2.3h6.1v-50.9h-6.5c-1.3,0-2.3-1.1-2.3-2.3c0-1.3,1.1-2.3,2.3-2.3h6.5
		v-62.8h-5.6c-1.3,0-2.3-1.1-2.3-2.3c0-1.3,1.1-2.3,2.3-2.3h111c0.1,0,0.2,0,0.2,0c0.1,0,0.2,0,0.2,0c0.1,0,0.2,0,0.2,0.1
		c0.2,0.1,0.4,0.2,0.6,0.3c0.1,0,0.1,0.1,0.2,0.1c0.2,0.2,0.4,0.4,0.5,0.6l0,0.1l38.3,67.4l0.1,0.1l14.1,24.7c0,0.1,0.1,0.2,0.1,0.2
		l6.4,11.2c0,0,0,0,0,0.1l10.9,19.2l0.1,0.2l8.7,15.2h51.4l-15.3-27l-0.1-0.2c0-0.1-0.1-0.2-0.1-0.2c0,0,0,0,0-0.1
		c0-0.1-0.1-0.2-0.1-0.3c0-0.1,0-0.2-0.1-0.3c0-0.1,0-0.2,0-0.3v0c0-0.1,0-0.2,0-0.3c0-0.2,0.1-0.4,0.2-0.6c0-0.1,0.1-0.2,0.1-0.2
		c0.1-0.1,0.1-0.2,0.2-0.3c0-0.1,0.1-0.1,0.2-0.2c0.1-0.1,0.1-0.1,0.2-0.2c0.1,0,0.1-0.1,0.2-0.1c0,0,0.1-0.1,0.2-0.1c0,0,0,0,0,0
		c0.1,0,0.1-0.1,0.2-0.1c0.1,0,0.1-0.1,0.2-0.1c0.1,0,0.3-0.1,0.5-0.1c0.1,0,0.2,0,0.2,0h132.2c1.3,0,2.3,1,2.3,2.3
		c0,1.3-1.1,2.3-2.3,2.3h-4.4v64.8h4.8c1.3,0,2.3,1.1,2.3,2.3c0,1.1-0.7,2-1.7,2.3c-0.3,0.2-0.7,0.3-1.1,0.3h-4.4v50.9h5
		C606.1,1080.3,607.2,1081.3,607.2,1082.6z"/>
	<g>
		<line class="st1" x1="242.9" y1="1082.6" x2="604.8" y2="1082.6"/>
		<line class="st1" x1="242.7" y1="1026.9" x2="604.6" y2="1026.9"/>
		<line class="st1" x1="242.2" y1="1027" x2="604.2" y2="1027"/>
		<polyline class="st1" points="472,957.3 597.5,957.3 604.2,957.3 		"/>
		<line class="st1" x1="423.3" y1="971.4" x2="241.8" y2="971.4"/>
		<line class="st1" x1="391.6" y1="915.8" x2="241.4" y2="915.8"/>
		<line class="st1" x1="353.3" y1="848.4" x2="242.2" y2="848.4"/>
		<line class="st1" x1="250.2" y1="1082.3" x2="250.2" y2="848.4"/>
		<line class="st1" x1="597.5" y1="1082.6" x2="597.5" y2="957.3"/>
		<g>
			<g>
				<line class="st1" x1="262.6" y1="1081.7" x2="262.6" y2="1058.4"/>
				<line class="st1" x1="273.9" y1="1079.7" x2="273.9" y2="1058.4"/>
				<path class="st1" d="M262.6,1058.4c0-3.6,2.6-6.6,5.7-6.6c3.1,0,5.7,2.9,5.7,6.6"/>
			</g>
			<g>
				<line class="st1" x1="297.1" y1="1081.7" x2="297.1" y2="1058.4"/>
				<line class="st1" x1="308.5" y1="1079.7" x2="308.5" y2="1058.4"/>
				<path class="st1" d="M297.1,1058.4c0-3.6,2.6-6.6,5.7-6.6c3.1,0,5.7,2.9,5.7,6.6"/>
			</g>
			<g>
				<line class="st1" x1="331.7" y1="1081.7" x2="331.7" y2="1058.4"/>
				<line class="st1" x1="343.1" y1="1079.7" x2="343.1" y2="1058.4"/>
				<path class="st1" d="M331.7,1058.4c0-3.6,2.6-6.6,5.7-6.6c3.1,0,5.7,2.9,5.7,6.6"/>
			</g>
			<g>
				<line class="st1" x1="366.3" y1="1081.7" x2="366.3" y2="1058.4"/>
				<line class="st1" x1="377.7" y1="1079.7" x2="377.7" y2="1058.4"/>
				<path class="st1" d="M366.3,1058.4c0-3.6,2.6-6.6,5.7-6.6c3.1,0,5.7,2.9,5.7,6.6"/>
			</g>
			<g>
				<line class="st1" x1="400.9" y1="1081.7" x2="400.9" y2="1058.4"/>
				<line class="st1" x1="412.3" y1="1079.7" x2="412.3" y2="1058.4"/>
				<path class="st1" d="M400.9,1058.4c0-3.6,2.6-6.6,5.7-6.6c3.1,0,5.7,2.9,5.7,6.6"/>
			</g>
			<g>
				<line class="st1" x1="435.4" y1="1081.7" x2="435.4" y2="1058.4"/>
				<line class="st1" x1="446.8" y1="1079.7" x2="446.8" y2="1058.4"/>
				<path class="st1" d="M435.4,1058.4c0-3.6,2.6-6.6,5.7-6.6c3.1,0,5.7,2.9,5.7,6.6"/>
			</g>
			<g>
				<line class="st1" x1="470" y1="1081.7" x2="470" y2="1058.4"/>
				<line class="st1" x1="481.4" y1="1079.7" x2="481.4" y2="1073.7"/>
				<path class="st1" d="M470.8,1055c-0.5,1-0.8,2.1-0.8,3.3"/>
			</g>
			<g>
				<line class="st1" x1="504.6" y1="1082" x2="504.6" y2="1058.7"/>
				<line class="st1" x1="516" y1="1080" x2="516" y2="1058.7"/>
				<path class="st1" d="M504.6,1058.7c0-3.6,2.6-6.6,5.7-6.6c3.1,0,5.7,2.9,5.7,6.6"/>
			</g>
			<g>
				<line class="st1" x1="539.2" y1="1075.4" x2="539.2" y2="1058.7"/>
				<line class="st1" x1="550.6" y1="1080" x2="550.6" y2="1058.7"/>
				<path class="st1" d="M539.2,1058.7c0-3.6,2.6-6.6,5.7-6.6c3.1,0,5.7,2.9,5.7,6.6"/>
			</g>
			<g>
				<line class="st1" x1="573.8" y1="1082.6" x2="573.8" y2="1059.3"/>
				<line class="st1" x1="585.2" y1="1080.6" x2="585.2" y2="1059.3"/>
				<path class="st1" d="M573.8,1059.3c0-3.6,2.6-6.6,5.7-6.6c3.1,0,5.7,2.9,5.7,6.6"/>
			</g>
		</g>
		<g>
			<g>
				<line class="st1" x1="262.6" y1="1026.1" x2="262.6" y2="1002.8"/>
				<line class="st1" x1="273.9" y1="1024.1" x2="273.9" y2="1002.8"/>
				<path class="st1" d="M262.6,1002.8c0-3.6,2.6-6.6,5.7-6.6c3.1,0,5.7,2.9,5.7,6.6"/>
			</g>
			<g>
				<line class="st1" x1="297.1" y1="1026.1" x2="297.1" y2="1002.8"/>
				<line class="st1" x1="308.5" y1="1024.1" x2="308.5" y2="1002.8"/>
				<path class="st1" d="M297.1,1002.8c0-3.6,2.6-6.6,5.7-6.6c3.1,0,5.7,2.9,5.7,6.6"/>
			</g>
			<g>
				<line class="st1" x1="331.7" y1="1026.1" x2="331.7" y2="1002.8"/>
				<line class="st1" x1="343.1" y1="1024.1" x2="343.1" y2="1002.8"/>
				<path class="st1" d="M331.7,1002.8c0-3.6,2.6-6.6,5.7-6.6c3.1,0,5.7,2.9,5.7,6.6"/>
			</g>
			<g>
				<line class="st1" x1="366.3" y1="1026.1" x2="366.3" y2="1002.8"/>
				<line class="st1" x1="377.7" y1="1024.1" x2="377.7" y2="1002.8"/>
				<path class="st1" d="M366.3,1002.8c0-3.6,2.6-6.6,5.7-6.6c3.1,0,5.7,2.9,5.7,6.6"/>
			</g>
			<g>
				<line class="st1" x1="400.9" y1="1026.1" x2="400.9" y2="1002.8"/>
				<line class="st1" x1="412.3" y1="1024.1" x2="412.3" y2="1002.8"/>
				<path class="st1" d="M400.9,1002.8c0-3.6,2.6-6.6,5.7-6.6c3.1,0,5.7,2.9,5.7,6.6"/>
			</g>
			<g>
				<line class="st1" x1="435.4" y1="1026.1" x2="435.4" y2="1002.8"/>
				<line class="st1" x1="446.8" y1="1024.1" x2="446.8" y2="1012.9"/>
				<path class="st1" d="M435.4,1002.8c0-2.3,1-4.3,2.5-5.5"/>
			</g>
			<g>
				<line class="st1" x1="470" y1="1026.1" x2="470" y2="1002.8"/>
				<line class="st1" x1="481.4" y1="1024.1" x2="481.4" y2="1002.8"/>
				<path class="st1" d="M470,1002.8c0-3.6,2.6-6.6,5.7-6.6c3.1,0,5.7,2.9,5.7,6.6"/>
			</g>
			<g>
				<polyline class="st1" points="504.6,1003.1 504.6,1003.1 504.6,1014.6 				"/>
				<line class="st1" x1="516" y1="1024.4" x2="516" y2="1003.1"/>
				<path class="st1" d="M504.6,1003.1c0-3.6,2.6-6.6,5.7-6.6c3.1,0,5.7,2.9,5.7,6.6"/>
			</g>
			<g>
				<line class="st1" x1="539.2" y1="1026.4" x2="539.2" y2="1003.1"/>
				<line class="st1" x1="550.6" y1="1024.4" x2="550.6" y2="1003.1"/>
				<path class="st1" d="M539.2,1003.1c0-3.6,2.6-6.6,5.7-6.6c3.1,0,5.7,2.9,5.7,6.6"/>
			</g>
			<g>
				<line class="st1" x1="573.8" y1="1027" x2="573.8" y2="1003.7"/>
				<line class="st1" x1="585.2" y1="1025.1" x2="585.2" y2="1003.7"/>
				<path class="st1" d="M573.8,1003.7c0-3.6,2.6-6.6,5.7-6.6c3.1,0,5.7,2.9,5.7,6.6"/>
			</g>
		</g>
		<polyline class="st1" points="353.3,848.4 372.7,882.6 391.6,915.8 405.8,940.7 412.3,952.1 423.3,971.4 432.7,988 438,997.3 
			446.8,1012.9 454.8,1026.9 454.9,1027 470.8,1055 481.4,1073.7 486.5,1082.6 		"/>
		<polyline class="st1" points="472,957.3 480,971.4 495.2,998.2 505.3,1015.9 511.6,1026.9 511.7,1027 530.6,1060.3 543.3,1082.6 
					"/>
		<line class="st1" x1="268.2" y1="885" x2="268.2" y2="875.7"/>
		<line class="st1" x1="302.8" y1="885" x2="302.8" y2="875.7"/>
		<line class="st1" x1="337.4" y1="885" x2="337.4" y2="875.7"/>
		<line class="st1" x1="432.5" y1="988" x2="489.3" y2="988"/>
		<g>
			<g>
				<line class="st1" x1="262.6" y1="970.5" x2="262.6" y2="947.2"/>
				<line class="st1" x1="273.9" y1="968.5" x2="273.9" y2="947.2"/>
				<path class="st1" d="M262.6,947.2c0-3.6,2.6-6.6,5.7-6.6c3.1,0,5.7,2.9,5.7,6.6"/>
			</g>
			<g>
				<line class="st1" x1="297.1" y1="970.5" x2="297.1" y2="947.2"/>
				<line class="st1" x1="308.5" y1="968.5" x2="308.5" y2="947.2"/>
				<path class="st1" d="M297.1,947.2c0-3.6,2.6-6.6,5.7-6.6c3.1,0,5.7,2.9,5.7,6.6"/>
			</g>
			<g>
				<line class="st1" x1="331.7" y1="970.5" x2="331.7" y2="947.2"/>
				<line class="st1" x1="343.1" y1="968.5" x2="343.1" y2="947.2"/>
				<path class="st1" d="M331.7,947.2c0-3.6,2.6-6.6,5.7-6.6c3.1,0,5.7,2.9,5.7,6.6"/>
			</g>
			<g>
				<line class="st1" x1="366.3" y1="970.5" x2="366.3" y2="947.2"/>
				<line class="st1" x1="377.7" y1="968.5" x2="377.7" y2="947.2"/>
				<path class="st1" d="M366.3,947.2c0-3.6,2.6-6.6,5.7-6.6c3.1,0,5.7,2.9,5.7,6.6"/>
			</g>
			<g>
				<line class="st1" x1="400.9" y1="970.5" x2="400.9" y2="947.2"/>
				<line class="st1" x1="412.3" y1="968.5" x2="412.3" y2="952.1"/>
				<path class="st1" d="M400.9,947.2c0-3.3,2.1-6.1,4.9-6.5"/>
			</g>
		</g>
		<line class="st1" x1="510.3" y1="975.4" x2="510.3" y2="970.3"/>
		<line class="st1" x1="544.9" y1="975.4" x2="544.9" y2="970.3"/>
		<line class="st1" x1="579.5" y1="975.4" x2="579.5" y2="970.3"/>
	</g>
</g>
<g>
	<path class="st0" d="M2581.1,1082.7c0,1.4-1.1,2.5-2.5,2.5H2474c-0.1,0-0.1,0-0.2,0c-0.1,0-0.1,0-0.2,0c-0.1,0-0.2,0-0.4,0h-70.8
		c-0.1,0-0.2,0-0.4,0c-0.1,0-0.1,0-0.2,0c-0.1,0-0.1,0-0.2,0h-104.7c-1.4,0-2.5-1.1-2.5-2.5c0-1.4,1.1-2.5,2.5-2.5h10.4V870.3
		c0-14.9,3.7-82.8,9.8-149.1c0,0,0,0,0,0c0,0,0,0,0-0.1c3.3-36.1,8.5-84.7,14.8-114.1c-4.5-2.1-7.7-6.7-7.7-12
		c0-7.3,5.9-13.2,13.2-13.2c7.3,0,13.2,5.9,13.2,13.2c0,5.2-3,9.6-7.3,11.8c8.4,39.5,15.9,118.6,20.5,184.9
		c3.5-62.2,12.2-174.2,23-224.8c-4.5-2.1-7.7-6.7-7.7-12c0-7.3,5.9-13.2,13.2-13.2c7.3,0,13.2,5.9,13.2,13.2c0,5.2-3,9.7-7.3,11.8
		c10.1,49.1,18.2,160.1,22.4,224.9l8.4-3.8c0.4-0.2,0.8-0.2,1.2-0.2l6.3-25.4c0.3-1.1,1.3-1.9,2.4-1.9h0.1c1.2,0,2.2,0.9,2.4,2
		l5.3,25.6l7.4,3.4c3.3-57.6,11.9-172.8,23-224.6c-4.3-2.2-7.3-6.6-7.3-11.8c0-7.3,5.9-13.2,13.2-13.2c7.3,0,13.2,5.9,13.2,13.2
		c0,5.3-3.2,9.9-7.7,12c10.8,50.8,19.5,162.6,23,224.8c4.6-66.4,12-145.5,20.5-184.9c-4.3-2.2-7.3-6.6-7.3-11.8
		c0-7.3,5.9-13.2,13.2-13.2s13.2,5.9,13.2,13.2c0,5.3-3.2,9.9-7.7,12c6.3,29.4,11.5,78.1,14.8,114.2c0,0,0,0,0,0.1c0,0,0,0,0,0
		c6.1,66.3,9.8,134.2,9.8,149.1v210h10.4C2579.9,1080.2,2581.1,1081.3,2581.1,1082.7z"/>
	<g>
		<line class="st1" x1="2297.1" y1="1082.7" x2="2578.6" y2="1082.7"/>
		<circle class="st1" cx="2392.4" cy="554.8" r="10.7"/>
		<path class="st1" d="M2389.8,565.2c-13,58.9-23,208.3-24.7,254.4c-0.2,4.6-0.3,8.2-0.3,10.5c0,3.8,0,10.1,0,18.1c0,0,0,0.1,0,0.1"
			/>
		<path class="st1" d="M2395.5,565.1c10.6,49.5,19.2,170.3,23,230.2c1.3,21.2,2.1,34.8,2.1,34.8v66.2"/>
		<line class="st1" x1="2374.5" y1="695.9" x2="2410.9" y2="695.9"/>
		<line class="st1" x1="2355.8" y1="721.4" x2="2319.7" y2="721.4"/>
		
			<ellipse transform="matrix(8.248141e-02 -0.9966 0.9966 8.248141e-02 1551.8668 2875.4307)" class="st1" cx="2337.6" cy="594.9" rx="10.7" ry="10.7"/>
		<path class="st1" d="M2334.9,605.4c-5.8,26.3-11.1,70.8-15.2,116c-6,65.9-9.8,133.5-9.8,148.9c0,27.5,0,212.4,0,212.4"/>
		<path class="st1" d="M2365.6,931.8c0-27.9,0-52.2,0-61.5c0-4-0.3-11.6-0.7-21.9c0,0,0-0.1,0-0.1c-0.4-7.9-0.9-17.3-1.5-27.8
			c-3.9-63.9-12.3-168.3-22.7-215.2"/>
		<line class="st1" x1="2430.1" y1="790" x2="2311.2" y2="844.2"/>
		<polyline class="st1" points="2333,1082.7 2365.6,931.8 2386.6,1031.3 		"/>
		<polyline class="st1" points="2374.5,1082.7 2438.4,824.5 2500.9,1082.7 		"/>
		<g>
			<path class="st1" d="M2347.5,1080.5c2-23.6,11.7-43.4,11.7-43.4s2.5-5.6,5.7-5.6"/>
			<path class="st1" d="M2364.9,1031.5c3.1,0,5.7,5.6,5.7,5.6s5,10.2,8.6,24.6"/>
		</g>
		
			<ellipse transform="matrix(0.2298 -0.9732 0.9732 0.2298 1372.7905 2844.0718)" class="st1" cx="2483.2" cy="554.7" rx="10.7" ry="10.7"/>
		<path class="st1" d="M2510.8,848.3c0-8.1,0-14.4,0-18.2c0-2.3-0.1-5.9-0.3-10.5c-1.7-46.1-11.6-195.5-24.7-254.4"/>
		<path class="st1" d="M2480.2,565.1c-11.3,50.7-20.2,168.7-23.6,229.9c-0.9,16.9-1.4,29.5-1.4,35.1c0,27.5,0,63.4,0,63.4"/>
		<line class="st1" x1="2501.2" y1="695.9" x2="2464.8" y2="695.9"/>
		<line class="st1" x1="2555.9" y1="721.3" x2="2519.9" y2="721.3"/>
		<circle class="st1" cx="2538.1" cy="594.9" r="10.7"/>
		<path class="st1" d="M2540.7,605.3c5.8,26.3,11.1,70.8,15.2,116c6,65.9,9.8,133.5,9.8,148.9c0,27.5,0,212.4,0,212.4"/>
		<path class="st1" d="M2535,605.2c-10.4,46.9-18.8,151.3-22.7,215.2c-1.5,24.3-2.3,42.7-2.3,49.8c0,9.4,0,33.6,0,61.5"/>
		<line class="st1" x1="2564.5" y1="844.2" x2="2445.5" y2="789.9"/>
		<polyline class="st1" points="2489,1031.2 2510.1,931.8 2542.7,1082.6 		"/>
		<g>
			<path class="st1" d="M2473.6,1082.7c-4.1-48.4-24.1-89.2-24.1-89.2s-5.2-11.5-11.6-11.5"/>
			<path class="st1" d="M2402.1,1082.7c4.1-48.4,24.1-89.2,24.1-89.2s5.2-11.5,11.6-11.5"/>
		</g>
		<g>
			<path class="st1" d="M2528.2,1080.5c-2-23.6-11.7-43.4-11.7-43.4s-2.5-5.6-5.7-5.6"/>
			<path class="st1" d="M2496.6,1061.7c3.6-14.4,8.6-24.6,8.6-24.6s2.5-5.6,5.7-5.6"/>
		</g>
		<g>
			<path class="st1" d="M2427.5,809.2c-0.8,1.4-1.3,3-1.3,4.8c0,5.8,5.2,10.5,11.6,10.5c6.4,0,11.6-4.7,11.6-10.5
				c0-0.9-0.1-1.7-0.3-2.6l0-0.1"/>
			<polyline class="st1" points="2449.2,811.4 2439.1,762.7 2427.5,809.2 			"/>
		</g>
		<g>
			<line class="st1" x1="2325.8" y1="809.9" x2="2325.8" y2="821.7"/>
			<g>
				<line class="st1" x1="2337.7" y1="802.7" x2="2337.7" y2="814.5"/>
				<line class="st1" x1="2337.7" y1="778.9" x2="2337.7" y2="790.7"/>
				<line class="st1" x1="2337.7" y1="755" x2="2337.7" y2="766.9"/>
				<line class="st1" x1="2350" y1="796.6" x2="2350" y2="808.4"/>
				<line class="st1" x1="2350" y1="772.8" x2="2350" y2="784.6"/>
				<line class="st1" x1="2350" y1="749" x2="2350" y2="760.8"/>
				<line class="st1" x1="2325.5" y1="786.1" x2="2325.5" y2="797.9"/>
				<line class="st1" x1="2325.5" y1="762.3" x2="2325.5" y2="774.1"/>
			</g>
			<g>
				<line class="st1" x1="2337.7" y1="851" x2="2337.7" y2="905.2"/>
				<line class="st1" x1="2350" y1="845" x2="2350" y2="899.2"/>
				<line class="st1" x1="2325.5" y1="858.3" x2="2325.5" y2="912.5"/>
			</g>
		</g>
		<g>
			<line class="st1" x1="2380.7" y1="785.4" x2="2380.7" y2="797.3"/>
			<g>
				<line class="st1" x1="2392.6" y1="778.2" x2="2392.6" y2="790"/>
				<line class="st1" x1="2392.6" y1="754.4" x2="2392.6" y2="766.2"/>
				<line class="st1" x1="2392.6" y1="730.6" x2="2392.6" y2="742.4"/>
				<line class="st1" x1="2404.9" y1="772.1" x2="2404.9" y2="783.9"/>
				<line class="st1" x1="2404.9" y1="748.3" x2="2404.9" y2="760.1"/>
				<line class="st1" x1="2404.9" y1="724.5" x2="2404.9" y2="736.3"/>
				<line class="st1" x1="2380.4" y1="761.6" x2="2380.4" y2="773.4"/>
				<line class="st1" x1="2380.4" y1="737.8" x2="2380.4" y2="749.6"/>
			</g>
			<g>
				<line class="st1" x1="2392.6" y1="826.5" x2="2392.6" y2="880.7"/>
				<line class="st1" x1="2404.9" y1="820.5" x2="2404.9" y2="874.7"/>
				<line class="st1" x1="2380.4" y1="833.8" x2="2380.4" y2="888"/>
			</g>
		</g>
		<g>
			<line class="st1" x1="2550.2" y1="809.9" x2="2550.2" y2="821.7"/>
			<g>
				<line class="st1" x1="2538.3" y1="802.7" x2="2538.3" y2="814.5"/>
				<line class="st1" x1="2538.3" y1="778.9" x2="2538.3" y2="790.7"/>
				<line class="st1" x1="2538.3" y1="755" x2="2538.3" y2="766.9"/>
				<line class="st1" x1="2526" y1="796.6" x2="2526" y2="808.4"/>
				<line class="st1" x1="2526" y1="772.8" x2="2526" y2="784.6"/>
				<line class="st1" x1="2526" y1="749" x2="2526" y2="760.8"/>
				<line class="st1" x1="2550.5" y1="786.1" x2="2550.5" y2="797.9"/>
				<line class="st1" x1="2550.5" y1="762.3" x2="2550.5" y2="774.1"/>
			</g>
			<g>
				<line class="st1" x1="2538.3" y1="851" x2="2538.3" y2="905.2"/>
				<line class="st1" x1="2526" y1="845" x2="2526" y2="899.2"/>
				<line class="st1" x1="2550.5" y1="858.3" x2="2550.5" y2="912.5"/>
			</g>
		</g>
		<g>
			<line class="st1" x1="2495.3" y1="785.4" x2="2495.3" y2="797.3"/>
			<g>
				<line class="st1" x1="2483.4" y1="778.2" x2="2483.4" y2="790"/>
				<line class="st1" x1="2483.4" y1="754.4" x2="2483.4" y2="766.2"/>
				<line class="st1" x1="2483.4" y1="730.6" x2="2483.4" y2="742.4"/>
				<line class="st1" x1="2471.1" y1="772.1" x2="2471.1" y2="783.9"/>
				<line class="st1" x1="2471.1" y1="748.3" x2="2471.1" y2="760.1"/>
				<line class="st1" x1="2471.1" y1="724.5" x2="2471.1" y2="736.3"/>
				<line class="st1" x1="2495.6" y1="761.6" x2="2495.6" y2="773.4"/>
				<line class="st1" x1="2495.6" y1="737.8" x2="2495.6" y2="749.6"/>
			</g>
			<g>
				<line class="st1" x1="2483.4" y1="826.5" x2="2483.4" y2="880.7"/>
				<line class="st1" x1="2471.1" y1="820.5" x2="2471.1" y2="874.7"/>
				<line class="st1" x1="2495.6" y1="833.8" x2="2495.6" y2="888"/>
			</g>
		</g>
	</g>
</g>
<g>
	<path class="st0" d="M2878.9,1072.1v10.6c0,1.4-1.1,2.5-2.5,2.5h-276.8c-0.3,0-0.5,0-0.7-0.1c-0.2-0.1-0.3-0.1-0.4-0.2
		c-0.2-0.1-0.4-0.2-0.6-0.4c-0.5-0.4-0.7-1.1-0.7-1.8v-10.6c0-1.4,1.1-2.5,2.5-2.5h6.1v-8.1c0-1.4,1.1-2.5,2.5-2.5h10V941.2h-9.7
		c-0.7,0-1.3-0.3-1.8-0.7c-0.5-0.5-0.7-1.1-0.7-1.8v-23.8h-4.7c-1.4,0-2.5-1.1-2.5-2.5v-9.2c0-0.1,0-0.2,0-0.4c0-0.1,0-0.1,0.1-0.2
		c0-0.1,0-0.2,0.1-0.2v0c0-0.1,0.1-0.2,0.1-0.4c0-0.1,0.1-0.1,0.1-0.2c0,0,0,0,0-0.1c0,0,0,0,0,0c0-0.1,0.1-0.1,0.1-0.2
		c0,0,0.1-0.1,0.1-0.1c0.1-0.1,0.2-0.2,0.3-0.2c0,0,0.1,0,0.1-0.1c0,0,0.1,0,0.1-0.1l0,0c0.1,0,0.1-0.1,0.2-0.1c0.1,0,0.1,0,0.2-0.1
		c0.1,0,0.1-0.1,0.2-0.1l0.1,0l136.5-42.8l0,0c0.1,0,0.2,0,0.3-0.1c0.1,0,0.1,0,0.2,0c0,0,0,0,0.1,0h0.5c0,0,0,0,0,0c0,0,0,0,0,0
		c0.1,0,0.1,0,0.2,0c0.1,0,0.2,0,0.2,0.1c0,0,0,0,0,0l0,0l136.6,42.8l0.1,0c0.1,0,0.1,0,0.2,0.1c0,0,0,0,0.1,0c0.1,0,0.1,0,0.2,0.1
		c0.1,0,0.2,0.1,0.2,0.1c0.1,0,0.1,0.1,0.1,0.1c0,0,0,0,0,0c0.1,0,0.1,0.1,0.2,0.2c0,0,0.1,0.1,0.1,0.1c0.1,0.1,0.1,0.1,0.1,0.2
		c0.1,0.1,0.1,0.1,0.1,0.2c0,0,0,0.1,0.1,0.1c0,0,0,0.1,0.1,0.1c0,0,0,0.1,0,0.1c0,0,0,0.1,0.1,0.1c0,0,0,0,0,0
		c0,0.1,0.1,0.1,0.1,0.2c0,0,0,0.1,0,0.1c0,0.1,0,0.2,0,0.2c0,0.1,0,0.1,0,0.2c0,0,0,0.1,0,0.1v9.2c0,0.7-0.3,1.3-0.7,1.8
		c-0.2,0.2-0.4,0.3-0.6,0.4c-0.1,0.1-0.3,0.1-0.4,0.2c-0.2,0.1-0.5,0.1-0.8,0.1h-4.7v23.8c0,0.7-0.3,1.3-0.7,1.8
		c-0.4,0.5-1.1,0.7-1.8,0.7h-9.7v117.9h10c1.4,0,2.5,1.1,2.5,2.5v8.1h6.1c0.7,0,1.3,0.3,1.8,0.7c0.2,0.2,0.3,0.4,0.4,0.6
		c0.1,0.1,0.1,0.3,0.2,0.4C2878.8,1071.6,2878.9,1071.9,2878.9,1072.1z"/>
	<g>
		<path class="st0" d="M2597.1,1072.1v10.6c0,1.4,1.1,2.5,2.5,2.5h276.8c1.4,0,2.5-1.1,2.5-2.5v-10.6c0-1.4-1.1-2.5-2.5-2.5h-6.1
			v-8.1c0-1.4-1.1-2.5-2.5-2.5h-10V941.2h9.7c1.4,0,2.5-1.1,2.5-2.5v-23.8h4.7c1.4,0,2.5-1.1,2.5-2.5v-9.2c0,0,0-0.1,0-0.1
			c0-0.1,0-0.2,0-0.3c0-0.1,0-0.1,0-0.2c0-0.1-0.1-0.2-0.1-0.3c0-0.1-0.1-0.1-0.1-0.2c0-0.1-0.1-0.2-0.1-0.2c0-0.1-0.1-0.1-0.1-0.2
			l-0.2-0.2c-0.1-0.1-0.1-0.1-0.1-0.1c-0.1-0.1-0.1-0.1-0.2-0.2c-0.1,0-0.1-0.1-0.2-0.1c-0.1,0-0.1-0.1-0.2-0.1
			c-0.1,0-0.1-0.1-0.2-0.1c0,0-0.1,0-0.1,0l-136.7-42.9c0,0,0,0,0,0c-0.1,0-0.2-0.1-0.3-0.1c0,0-0.1,0-0.2,0h-0.5
			c-0.1,0-0.1,0-0.2,0c-0.1,0-0.2,0-0.3,0.1c0,0,0,0,0,0l-136.7,42.9c0,0-0.1,0-0.1,0c-0.1,0-0.2,0.1-0.2,0.1
			c-0.1,0-0.1,0.1-0.2,0.1c-0.1,0-0.1,0.1-0.2,0.1c-0.1,0-0.1,0.1-0.2,0.2c-0.1,0.1-0.1,0.1-0.2,0.2c-0.1,0.1-0.1,0.1-0.1,0.2
			c-0.1,0.1-0.1,0.1-0.1,0.2c0,0.1-0.1,0.1-0.1,0.2c0,0.1-0.1,0.1-0.1,0.2c0,0.1-0.1,0.1-0.1,0.2c0,0.1,0,0.1,0,0.2
			c0,0.1,0,0.2,0,0.3c0,0,0,0.1,0,0.1v9.2c0,1.4,1.1,2.5,2.5,2.5h4.7v23.8c0,1.4,1.1,2.5,2.5,2.5h9.7v117.9h-10
			c-1.4,0-2.5,1.1-2.5,2.5v8.1h-6.1C2598.2,1069.6,2597.1,1070.8,2597.1,1072.1z"/>
		<g>
			<g>
				
					<rect x="2839.8" y="938.7" transform="matrix(-1 -1.224647e-16 1.224647e-16 -1 5695.0303 2000.2648)" class="st1" width="15.5" height="122.9"/>
				
					<rect x="2796" y="938.7" transform="matrix(-1 -1.224647e-16 1.224647e-16 -1 5607.396 2000.2648)" class="st1" width="15.5" height="122.9"/>
				
					<rect x="2752.1" y="938.7" transform="matrix(-1 -1.224647e-16 1.224647e-16 -1 5519.7617 2000.2648)" class="st1" width="15.5" height="122.9"/>
				
					<rect x="2708.3" y="938.7" transform="matrix(-1 -1.224647e-16 1.224647e-16 -1 5432.1274 2000.2648)" class="st1" width="15.5" height="122.9"/>
				
					<rect x="2664.5" y="938.7" transform="matrix(-1 -1.224647e-16 1.224647e-16 -1 5344.4927 2000.2648)" class="st1" width="15.5" height="122.9"/>
				
					<rect x="2620.7" y="938.7" transform="matrix(-1 -1.224647e-16 1.224647e-16 -1 5256.8584 2000.2648)" class="st1" width="15.5" height="122.9"/>
			</g>
			<line class="st1" x1="2749.6" y1="938.7" x2="2726.4" y2="938.7"/>
			
				<rect x="2608.5" y="928.1" transform="matrix(-1 -1.224647e-16 1.224647e-16 -1 5475.9443 1866.8265)" class="st1" width="259" height="10.6"/>
			<polyline class="st1" points="2874.6,903.2 2874.6,912.4 2867.5,912.4 2608.5,912.4 2601.3,912.4 2601.3,903.2 			"/>
			<line class="st1" x1="2634.6" y1="903.2" x2="2841.4" y2="903.2"/>
			
				<rect x="2608.2" y="1061.6" transform="matrix(-1 -1.224647e-16 1.224647e-16 -1 5475.9443 2133.7029)" class="st1" width="259.5" height="10.6"/>
			
				<rect x="2599.6" y="1072.1" transform="matrix(-1 -1.224647e-16 1.224647e-16 -1 5475.9443 2154.8296)" class="st1" width="276.8" height="10.6"/>
			
				<rect x="2608.5" y="912.4" transform="matrix(-1 -1.224647e-16 1.224647e-16 -1 5475.9443 1840.5398)" class="st1" width="259" height="15.7"/>
			<line class="st1" x1="2874.6" y1="903.2" x2="2738" y2="860.3"/>
			<line class="st1" x1="2601.3" y1="903.2" x2="2738" y2="860.3"/>
			<line class="st1" x1="2738" y1="870.7" x2="2841.4" y2="903.2"/>
			<line class="st1" x1="2634.6" y1="903.2" x2="2738" y2="870.7"/>
			
				<rect x="2721.4" y="885.7" transform="matrix(-1 -1.224647e-16 1.224647e-16 -1 5478.418 1788.8486)" class="st1" width="35.6" height="17.5"/>
		</g>
	</g>
</g>
<g>
	<path class="st0" d="M3999.1,719.5v106.3c0,1.5-1.2,2.7-2.7,2.7h-5.4v248.3c0,1.5-1.2,2.7-2.7,2.7h-92.7c-1.5,0-2.7-1.2-2.7-2.7
		V828.6h-5.4c-1.5,0-2.7-1.2-2.7-2.7V719.5c0-1.5,1.2-2.7,2.7-2.7h5.4v-18.4c0-0.4,0.1-0.7,0.2-1.1l0.1-0.2l21.1-47.2v-13.1
		c0-0.1,0-0.2,0-0.3c0-0.1,0-0.2,0.1-0.3c0-0.1,0.1-0.2,0.1-0.3c0-0.1,0.1-0.2,0.2-0.3l0-0.1l24.5-45.8V572c0-1.5,1.2-2.7,2.7-2.7
		c1.5,0,2.7,1.2,2.7,2.7v17.5l24.5,45.8l0,0.1c0.1,0.2,0.2,0.3,0.2,0.5c0,0.1,0,0.1,0.1,0.2c0,0.1,0,0.2,0,0.2c0,0.1,0,0.2,0,0.3
		c0,0,0,0,0,0v13.1l21.1,47.2l0.1,0.2c0.2,0.4,0.2,0.7,0.2,1.1v18.4h5.4C3997.9,716.8,3999.1,718,3999.1,719.5z"/>
	<g>
		<rect x="3895.6" y="825.9" class="st1" width="92.7" height="251"/>
		<rect x="3887.5" y="719.5" class="st1" width="108.8" height="106.4"/>
		<rect x="3895.6" y="698.4" class="st1" width="92.7" height="21.2"/>
		<polygon class="st1" points="3988.3,698.4 3895.6,698.4 3917.2,650.2 3966.7,650.2 		"/>
		<rect x="3917.1" y="636.8" class="st1" width="49.7" height="13.5"/>
		
			<ellipse transform="matrix(0.2298 -0.9732 0.9732 0.2298 2284.2505 4431.6685)" class="st1" cx="3942" cy="772.7" rx="38.8" ry="38.8"/>
		<polyline class="st1" points="3942,744.9 3942,772.7 3957,757.6 		"/>
		<rect x="3895.6" y="909.6" class="st1" width="92.7" height="83.7"/>
		<polygon class="st1" points="3966.8,636.8 3917.1,636.8 3942,590.3 3942,590.3 		"/>
		<line class="st1" x1="3942" y1="572" x2="3942" y2="591.5"/>
		<g class="st3">
			<line class="st1" x1="3912.9" y1="1010" x2="3912.9" y2="1062"/>
			<line class="st1" x1="3932.3" y1="1010" x2="3932.3" y2="1062"/>
			<line class="st1" x1="3951.7" y1="1010" x2="3951.7" y2="1062"/>
			<line class="st1" x1="3971" y1="1010" x2="3971" y2="1062"/>
		</g>
		<g>
			<line class="st1" x1="3912.9" y1="925.4" x2="3912.9" y2="977.4"/>
			<line class="st1" x1="3932.3" y1="925.4" x2="3932.3" y2="977.4"/>
			<line class="st1" x1="3951.7" y1="925.4" x2="3951.7" y2="977.4"/>
			<line class="st1" x1="3971" y1="925.4" x2="3971" y2="977.4"/>
		</g>
		<g>
			<line class="st1" x1="3912.9" y1="840.8" x2="3912.9" y2="892.8"/>
			<line class="st1" x1="3932.3" y1="840.8" x2="3932.3" y2="892.8"/>
			<line class="st1" x1="3951.7" y1="840.8" x2="3951.7" y2="892.8"/>
			<line class="st1" x1="3971" y1="840.8" x2="3971" y2="892.8"/>
		</g>
	</g>
</g>
<g>
	<path class="st0" d="M3714.2,956.5C3714.3,956.5,3714.3,956.5,3714.2,956.5l7.5,11.3l95.4-155.8c0-0.1,0.1-0.1,0.1-0.2
		c0,0,0.1-0.1,0.1-0.1c0.1-0.1,0.3-0.3,0.4-0.4c0,0,0,0,0,0c0.2-0.1,0.3-0.2,0.5-0.3c0.1,0,0.1,0,0.2,0c0.2,0,0.3-0.1,0.5-0.1
		c0,0,0.1,0,0.1,0h0c0.2,0,0.4,0,0.6,0c0,0,0.1,0,0.1,0c0.2,0,0.3,0.1,0.5,0.2c0.1,0,0.1,0,0.1,0.1c0.1,0,0.1,0,0.1,0.1
		c0.1,0.1,0.2,0.1,0.3,0.2c0,0,0.1,0,0.1,0c0.2,0.1,0.3,0.3,0.4,0.5c0,0,0,0,0,0l171,269.4c0.5,0.8,0.5,1.7,0.1,2.5
		c-0.4,0.8-1.3,1.3-2.2,1.3h-285c0,0,0,0,0,0h-44.4c0,0,0,0,0,0h-69.1c0,0,0,0,0,0h-51.3c-0.2,0-0.4,0-0.6-0.1c-0.1,0-0.1,0-0.1-0.1
		c-0.2,0-0.3-0.1-0.4-0.2c0,0-0.1,0-0.1-0.1c-0.2-0.1-0.3-0.2-0.5-0.4l-0.1-0.1c-0.1-0.1-0.2-0.3-0.3-0.4c0,0,0,0-0.1-0.1
		c0,0,0,0,0-0.1c-0.1-0.1-0.1-0.3-0.2-0.5c0,0,0-0.1,0-0.1c0-0.2-0.1-0.4-0.1-0.5c0,0,0,0,0-0.1c0,0,0-0.1,0-0.1
		c0-0.2,0-0.3,0.1-0.5c0-0.1,0-0.1,0.1-0.2c0.1-0.2,0.1-0.3,0.2-0.5c0,0,0,0,0-0.1l125.4-194.2c0,0,0.1-0.1,0.1-0.1
		c0,0,0.1-0.1,0.1-0.1c0.1-0.1,0.2-0.2,0.4-0.3c0,0,0.1,0,0.1-0.1c0.2-0.1,0.3-0.2,0.5-0.3c0.1,0,0.1,0,0.2,0
		c0.2-0.1,0.3-0.1,0.4-0.1c0,0,0.1,0,0.1,0h0.1c0.2,0,0.4,0,0.6,0c0,0,0,0,0,0c0.2,0,0.4,0.1,0.5,0.2c0.1,0,0.1,0.1,0.2,0.1
		c0.1,0,0.1,0.1,0.2,0.1c0.1,0,0.1,0.1,0.2,0.1c0.1,0,0.1,0.1,0.1,0.1c0.2,0.1,0.3,0.3,0.4,0.4c0,0,0,0,0,0"/>
	<g>
		<polyline class="st1" points="3740.3,999.9 3819.3,813.3 3990.3,1082.7 3795.7,1082.7 3717.4,1082.7 3705.3,1082.7 		"/>
		<line class="st1" x1="3655.5" y1="1082.7" x2="3654.3" y2="1082.7"/>
		<line class="st1" x1="3819.3" y1="813.3" x2="3721.9" y2="972.4"/>
		<line class="st1" x1="3654.3" y1="1082.7" x2="3717.4" y2="1082.7"/>
		<polygon class="st1" points="3579.1,1082.7 3795.7,1082.7 3665.7,888.5 		"/>
		<polyline class="st1" points="3665.7,888.5 3540.4,1082.7 3541.2,1082.7 		"/>
		<line class="st1" x1="3540.4" y1="1082.7" x2="3588.3" y2="1082.7"/>
		<line class="st1" x1="3591.7" y1="1082.7" x2="3660.8" y2="1082.7"/>
		<line class="st1" x1="3593.4" y1="1051.5" x2="3660.8" y2="1051.5"/>
		<line class="st1" x1="3608.4" y1="1020.3" x2="3751.8" y2="1020.3"/>
		<line class="st1" x1="3621.3" y1="989.1" x2="3641.2" y2="989.1"/>
		<line class="st1" x1="3692" y1="1051.5" x2="3711.9" y2="1051.5"/>
		<line class="st1" x1="3735.9" y1="1051.5" x2="3775" y2="1051.5"/>
		<line class="st1" x1="3670.1" y1="989.1" x2="3733" y2="989.1"/>
		<line class="st1" x1="3635" y1="957.9" x2="3666.6" y2="957.9"/>
		<line class="st1" x1="3684.2" y1="957.9" x2="3712.2" y2="957.9"/>
		<line class="st1" x1="3649.5" y1="926.7" x2="3671.2" y2="926.7"/>
		<line class="st1" x1="3974.3" y1="1058.7" x2="3907.7" y2="1058.7"/>
		<line class="st1" x1="3959.9" y1="1037.4" x2="3886.1" y2="1037.4"/>
		<line class="st1" x1="3947.6" y1="1016.2" x2="3751.4" y2="1016.2"/>
		<line class="st1" x1="3933.4" y1="994.9" x2="3886.1" y2="994.9"/>
		<line class="st1" x1="3920.6" y1="973.6" x2="3852.3" y2="973.6"/>
		<line class="st1" x1="3880.2" y1="952.3" x2="3856.8" y2="952.3"/>
		<line class="st1" x1="3769.6" y1="931" x2="3801" y2="931"/>
		<line class="st1" x1="3865.2" y1="909.8" x2="3778.9" y2="909.8"/>
		<line class="st1" x1="3814.5" y1="888.5" x2="3839.2" y2="888.5"/>
		<line class="st1" x1="3780.7" y1="1058.7" x2="3817.9" y2="1058.7"/>
		<line class="st1" x1="3856.1" y1="994.9" x2="3834.2" y2="994.9"/>
		<line class="st1" x1="3845.2" y1="1037.4" x2="3823.2" y2="1037.4"/>
		<line class="st1" x1="3795.7" y1="973.6" x2="3815.4" y2="973.6"/>
		<line class="st1" x1="3829" y1="931" x2="3892.9" y2="931"/>
		<line class="st1" x1="3816.1" y1="867.2" x2="3796.9" y2="867.2"/>
		<line class="st1" x1="3801" y1="1058.7" x2="3876.6" y2="1058.7"/>
		<line class="st1" x1="3745.8" y1="994.9" x2="3814.2" y2="994.9"/>
		<line class="st1" x1="3766.4" y1="1037.4" x2="3792.7" y2="1037.4"/>
	</g>
</g>
<g>
	<path class="st0" d="M1132.9,936.1v61.3c0,0.1,0,0.2,0,0.3v85.1c0,1.4-1.1,2.5-2.5,2.5h-274c-1.4,0-2.5-1.1-2.5-2.5v-87.3
		c0-0.2,0-0.4,0-0.5l4.7-22.4l16.2-76.8c0.2-1.2,1.3-2,2.4-2h0c1.2,0,2.2,0.9,2.4,2L893,968v-59.4l-6.3-17.2
		c-6.4-4.8-9.6-11.3-9.6-19.3c0-12.4,7.5-22.2,18-34.6c0,0,0.1-0.1,0.1-0.1c9.4-10,13.7-20.7,13.7-26.5v-26.4c0-1.4,1.1-2.5,2.5-2.5
		c1.4,0,2.5,1.1,2.5,2.5v25.1c0,5.8,4.3,16.6,13.7,26.5c0,0,0.1,0.1,0.1,0.1c7.5,8.9,13.5,16.4,16.2,24.5c1.8-5,4.8-9.5,8.9-13
		c9.9-8.5,14.5-17.1,14.5-26.9v-21.3c0-1.4,1.1-2.5,2.5-2.5s2.5,1.1,2.5,2.5v21.3c0,9.9,4.6,18.4,14.5,26.9c0.8,0.7,1.5,1.3,2.2,2.1
		l32.1-118.3v-27.3c-0.2-0.1-0.4-0.2-0.6-0.3c-3.1-2.3-4.7-5.4-4.7-9.3c0-5.6,3.2-9.8,7.8-15.2c0,0,0.1-0.1,0.1-0.1
		c3.9-4.1,5.3-8.1,5.3-9.9v-10.9c0-1.4,1.1-2.5,2.5-2.5s2.5,1.1,2.5,2.5v10.3c0,1.8,1.4,5.8,5.3,9.9c0,0,0.1,0.1,0.1,0.1
		c4.5,5.3,7.8,9.6,7.8,15.2c0,3.5-1.3,6.4-3.9,8.6c-0.2,0.7-0.8,1.2-1.4,1.5V731l32.6,120.2c1.6-4.5,4.2-8.5,7.6-11.7
		c8.8-8.3,13-16.6,13-26.2v-20.4c0-1.4,1.1-2.5,2.5-2.5s2.5,1.1,2.5,2.5v20.4c0,9.6,4.1,17.9,12.9,26.2c5.9,5.5,9.5,13.9,9.6,22.3
		c0.1,6.9-2.2,13.1-6.4,17.4v28.1l16.6,27.3c0.2,0.4,0.4,0.8,0.4,1.3v0C1132.9,935.9,1132.9,936,1132.9,936.1z"/>
	<g>
		<polyline class="st1" points="1130.4,997.4 1130.4,1082.7 856.4,1082.7 856.4,1048.1 		"/>
		<g>
			<path class="st1" d="M969.9,820.7c0,9.5-3.9,18.9-15.4,28.8c-11.5,9.9-13.4,28.2-2.9,37.6"/>
			<path class="st1" d="M988.2,887.1c10.5-9.3,8.6-27.6-2.9-37.6c-11.5-9.9-15.4-19.3-15.4-28.8v-21.3"/>
		</g>
		<g>
			<path class="st1" d="M1097.4,813.2c0,9.3-3.5,18.4-13.7,28.1s-12,27.5-2.6,36.5"/>
			<path class="st1" d="M1113.8,877.8c9.4-9.1,7.7-26.9-2.6-36.5s-13.7-18.8-13.7-28.1v-20.4"/>
		</g>
		<g>
			<path class="st1" d="M911.4,810.9c0,6.6-4.7,18-14.4,28.2c-10.6,12.5-17.4,21.5-17.4,33c0,8.4,3.9,13.9,9,17.6"/>
			<path class="st1" d="M911.4,809.6c0,6.6,4.7,18,14.4,28.2c10.6,12.5,17.4,21.5,17.4,33c0,8.4-5.5,15.2-10.5,18.9"/>
		</g>
		<polyline class="st1" points="932.7,889.7 888.8,889.7 895.5,908.1 916.4,908.1 		"/>
		<line class="st1" x1="911.4" y1="784.5" x2="911.4" y2="810.9"/>
		<g>
			<g>
				<path class="st1" d="M1031.5,669.3c0,2.7-1.9,7.4-5.9,11.6c-4.4,5.1-7.2,8.9-7.2,13.6c0,3.5,1.6,5.7,3.7,7.3"/>
				<path class="st1" d="M1031.5,668.8c0,2.7,1.9,7.4,5.9,11.6c4.4,5.1,7.2,8.9,7.2,13.6c0,3.5-1.6,5.7-3.7,7.3"/>
			</g>
			<line class="st1" x1="1040.8" y1="701.8" x2="1022.1" y2="701.8"/>
			<line class="st1" x1="1031.5" y1="658.5" x2="1031.5" y2="669.3"/>
		</g>
		<rect x="1023.7" y="701.8" class="st1" width="15.5" height="29.5"/>
		<polyline class="st1" points="1039.2,731.3 1074.6,861.4 1039.2,861.4 995.1,861.4 		"/>
		<line class="st1" x1="1023.8" y1="731.3" x2="990.2" y2="855.1"/>
		<polyline class="st1" points="993.5,861.4 995.1,861.4 1023.8,861.4 1068,861.4 		"/>
		<rect x="951.6" y="887.1" class="st1" width="36.7" height="38.5"/>
		<g>
			<path class="st1" d="M935,894.3c0,5.2-2.1,10.3-8.4,15.7c-6.3,5.4-7.3,15.4-1.6,20.5"/>
			<path class="st1" d="M935,894.3c0,5.2,2.1,10.3,8.4,15.7c6.3,5.4,7.3,15.4,1.6,20.5"/>
		</g>
		<polyline class="st1" points="925,958.6 925,931 944.9,931 		"/>
		<rect x="1081.4" y="877.8" class="st1" width="32.1" height="30.3"/>
		<line class="st1" x1="1018.4" y1="802.3" x2="1057.8" y2="802.3"/>
		<rect x="942.9" y="941.5" class="st1" width="54.2" height="55.9"/>
		<line class="st1" x1="926" y1="1048.1" x2="1019.6" y2="1048.1"/>
		<polyline class="st1" points="1036,1018.7 856.4,1018.7 856.4,1033.4 856.4,1048.1 892.5,1048.1 		"/>
		<polyline class="st1" points="1066.3,1018.7 1093.9,1018.7 1130.4,1018.7 		"/>
		<line class="st1" x1="1130.4" y1="1048.1" x2="1080.8" y2="1048.1"/>
		<line class="st1" x1="926" y1="1048.1" x2="1019.6" y2="1048.1"/>
		<polyline class="st1" points="953.4,1033.4 856.4,1033.4 856.4,1048.1 892.5,1048.1 		"/>
		<line class="st1" x1="1007.9" y1="1033.4" x2="968.9" y2="1033.4"/>
		<line class="st1" x1="1130.4" y1="1033.4" x2="1099.6" y2="1033.4"/>
		<line class="st1" x1="1130.4" y1="1048.1" x2="1085.1" y2="1048.1"/>
		<rect x="942.9" y="997.4" class="st1" width="54.2" height="21.3"/>
		<rect x="895.5" y="958.6" class="st1" width="29.4" height="60.1"/>
		<line class="st1" x1="1130.4" y1="997.4" x2="1057.3" y2="997.4"/>
		<line class="st1" x1="1045.6" y1="997.4" x2="995.8" y2="997.4"/>
		<line class="st1" x1="988.4" y1="925.6" x2="997.1" y2="941.5"/>
		<line class="st1" x1="951.6" y1="925.6" x2="942.9" y2="942.2"/>
		<rect x="1064.5" y="936.1" class="st1" width="66" height="61.3"/>
		<g>
			<line class="st1" x1="1113.5" y1="907.9" x2="1130.4" y2="935.8"/>
			<line class="st1" x1="1081.7" y1="907.9" x2="1064.7" y2="935.8"/>
		</g>
		<line class="st1" x1="895.5" y1="908.1" x2="895.5" y2="958.6"/>
		<polyline class="st1" points="1072.5,1033.4 1066.3,1018.7 1051.6,984 1029.3,1033.4 1029.3,1033.4 1029.3,1048.1 1029.3,1082.7 
			1072.5,1082.7 1072.5,1048.1 1072.5,1033.4 		"/>
		<g>
			<line class="st1" x1="963.1" y1="901.3" x2="963.1" y2="915"/>
			<line class="st1" x1="976.7" y1="901.3" x2="976.7" y2="915"/>
		</g>
		<g>
			<line class="st1" x1="1090.6" y1="886.9" x2="1090.6" y2="897.5"/>
			<line class="st1" x1="1104.3" y1="886.9" x2="1104.3" y2="897.5"/>
		</g>
		<g>
			<path class="st1" d="M1042.3,874.6c0,7.3-2.9,14.4-11.7,22c-8.8,7.6-10.2,21.5-2.2,28.6"/>
			<path class="st1" d="M1042.3,874.6c0,7.3,2.9,14.4,11.7,22c8.8,7.6,10.2,21.5,2.2,28.6"/>
		</g>
		<rect x="1028.4" y="925.9" class="st1" width="27.9" height="24.6"/>
		<line class="st1" x1="1028.4" y1="949.9" x2="1020.7" y2="996.2"/>
		<line class="st1" x1="1056.2" y1="950.5" x2="1063.9" y2="996.8"/>
		<line class="st1" x1="1042.3" y1="935.6" x2="1042.3" y2="940.9"/>
		<polygon class="st1" points="895.5,995.4 856.4,995.4 877.3,896.3 		"/>
		<line class="st1" x1="856.4" y1="995.4" x2="856.4" y2="1018.7"/>
		<polyline class="st1" points="1063.9,997.4 1080.8,959.7 1097.2,997.4 		"/>
		<polyline class="st1" points="1098.4,997.4 1115.3,959.7 1131.6,997.4 		"/>
		<line class="st1" x1="861.1" y1="973" x2="879.6" y2="973"/>
	</g>
	<rect x="1040" y="1048.1" class="st1" width="23.2" height="34.5"/>
</g>
<g>
	<path class="st0" d="M1778.9,1050.9v31.8c0,1.4-1.1,2.5-2.5,2.5h-328.3c-1.4,0-2.5-1.1-2.5-2.5v-31.8c0-1.4,1.1-2.5,2.5-2.5h19.2
		v-26.7c0-1.4,1.1-2.5,2.5-2.5h18.2v-24.8c0-1.4,1.1-2.5,2.5-2.5h16.2v-22.4c0-1.4,1.1-2.5,2.5-2.5h15.7v-22.4
		c0-1.4,1.1-2.5,2.5-2.5h14.2v-17.8c0-1.4,1.1-2.5,2.5-2.5h14.7V907c0-1.4,1.1-2.5,2.5-2.5h13.4V869c0-1.4,1.1-2.5,2.5-2.5h70.2
		c1.4,0,2.5,1.1,2.5,2.5v35.5h13.4c1.4,0,2.5,1.1,2.5,2.5v14.9h14.7c1.4,0,2.5,1.1,2.5,2.5v17.8h14.2c1.4,0,2.5,1.1,2.5,2.5V967
		h15.7c1.4,0,2.5,1.1,2.5,2.5v22.4h16.2c1.4,0,2.5,1.1,2.5,2.5v24.8h18.2c1.4,0,2.5,1.1,2.5,2.5v26.7h19.2
		C1777.8,1048.4,1778.9,1049.5,1778.9,1050.9z"/>
	<g>
		<line class="st1" x1="1655.6" y1="1040.2" x2="1569" y2="1040.2"/>
		<line class="st1" x1="1654.5" y1="1020.3" x2="1570.1" y2="1020.3"/>
		<line class="st1" x1="1652.7" y1="1000.4" x2="1571.9" y2="1000.4"/>
		<line class="st1" x1="1650" y1="980.5" x2="1574.6" y2="980.5"/>
		<line class="st1" x1="1643.4" y1="940.7" x2="1581.1" y2="940.7"/>
		<line class="st1" x1="1648" y1="960.6" x2="1576.6" y2="960.6"/>
		<path class="st1" d="M1581.7,920.9"/>
		<path class="st1" d="M1642.8,920.9"/>
		<rect x="1577.2" y="869" class="st1" width="70.2" height="38"/>
		<g>
			<polyline class="st1" points="1677.7,1050.9 1754.7,1050.9 1754.7,1021.7 1734,1021.7 1671.5,1021.7 			"/>
			<polyline class="st1" points="1671.5,1021.7 1734,1021.7 1734,994.4 1715.3,994.4 1665.7,994.4 			"/>
			<polygon class="st1" points="1715.3,969.5 1715.3,994.4 1665.7,994.4 1660.5,969.5 			"/>
			<polyline class="st1" points="1660.5,969.5 1697.2,969.5 1697.2,944.7 1680.5,944.7 1655.2,944.7 			"/>
			<polyline class="st1" points="1655.2,944.7 1680.5,944.7 1680.5,924.3 1663.3,924.3 1650.9,924.3 			"/>
			<g>
				<polyline class="st1" points="1546.8,1050.9 1469.9,1050.9 1448.1,1050.9 1448.1,1082.7 1540.1,1082.7 1561.3,1082.7 
					1663.2,1082.7 1684.4,1082.7 1776.4,1082.7 1776.4,1050.9 1754.7,1050.9 1677.7,1050.9 				"/>
				<polyline class="st1" points="1553,1021.7 1490.6,1021.7 1469.9,1021.7 1469.9,1050.9 1546.8,1050.9 				"/>
				<polyline class="st1" points="1553,1021.7 1490.6,1021.7 1490.6,994.4 1509.3,994.4 1558.7,994.4 				"/>
				<polygon class="st1" points="1564,969.5 1558.7,994.4 1509.3,994.4 1509.3,969.5 				"/>
				<polyline class="st1" points="1564,969.5 1527.4,969.5 1527.4,944.7 1544.1,944.7 1569.2,944.7 				"/>
				<polyline class="st1" points="1573.5,924.3 1561.3,924.3 1544.1,924.3 1544.1,944.7 1569.2,944.7 				"/>
				<polyline class="st1" points="1650.9,924.3 1663.3,924.3 1663.3,907 1647.4,907 1647.3,907 1641.2,907 1619.6,907 1605.6,907 
					1583.3,907 1577.2,907 1561.3,907 1561.3,924.3 1573.5,924.3 				"/>
				<g>
					<g>
						<polyline class="st1" points="1583.3,907 1581.1,924.3 1578.5,944.7 1575.4,969.5 1572.3,994.4 1568.9,1021.7 1565.3,1050.9 
							1561.3,1082.7 1540.1,1082.7 1546.8,1050.9 1553,1021.7 1558.7,994.4 1564,969.5 1569.2,944.7 1573.5,924.3 1577.2,907 						
							"/>
					</g>
					<polyline class="st1" points="1641.2,907 1643.4,924.3 1645.9,944.7 1649,969.5 1652.2,994.4 1655.6,1021.7 1659.2,1050.9 
						1663.2,1082.7 1684.4,1082.7 1677.7,1050.9 1671.5,1021.7 1665.7,994.4 1660.5,969.5 1655.2,944.7 1650.9,924.3 1647.3,907 
											"/>
				</g>
			</g>
		</g>
		<rect x="1603.1" y="882.1" class="st1" width="18.3" height="24.8"/>
		<line class="st1" x1="1572" y1="869" x2="1652.6" y2="869"/>
	</g>
	<line class="st1" x1="1659.3" y1="1060.1" x2="1565.3" y2="1060.1"/>
	<line class="st1" x1="1642.8" y1="920.9" x2="1581.7" y2="920.9"/>
</g>
<g>
	<g>
		<path class="st1" d="M2067.9,355.5c0,0,0-0.1,0.1-0.1c3.1-6.1,4.8-13,4.8-20.4c0-25.3-20.5-45.8-45.8-45.8
			c-25.3,0-45.8,20.5-45.8,45.8c0,7.3,1.7,14.2,4.7,20.3"/>
		<path class="st1" d="M2026.9,406.6h-10.1c0,0-21.2-30.1-31-51.3"/>
		<path class="st1" d="M2026.9,406.6h10.1c0,0,21.2-30.1,31-51.3"/>
	</g>
	<g>
		<path class="st1" d="M2041.8,355.5c0,0,0-0.1,0-0.1c1.1-6.1,1.7-13,1.7-20.4c0-25.3-7.4-45.8-16.6-45.8
			c-9.2,0-16.6,20.5-16.6,45.8c0,7.3,0.6,14.2,1.7,20.3"/>
		<path class="st1" d="M2026.9,406.6h-3.6c0,0-7.7-30.1-11.2-51.3"/>
		<path class="st1" d="M2026.9,406.6h3.6c0,0,7.7-30.1,11.2-51.3"/>
	</g>
	<line class="st1" x1="2016.9" y1="406.6" x2="2016.9" y2="420.3"/>
	<line class="st1" x1="2037" y1="406.6" x2="2037" y2="420.3"/>
	<polyline class="st1" points="2012.1,420.3 2041.8,420.3 2038.7,438.1 2023.5,438.1 2030.3,438.1 2015.1,438.1 2012.1,420.3 
		2041.8,420.3 	"/>
</g>
<g>
	<line class="st1" x1="355.1" y1="216.1" x2="368" y2="216.1"/>
	<line class="st1" x1="533.8" y1="216.1" x2="538.6" y2="216.1"/>
	<polyline class="st1" points="382.4,216.1 417,216.1 418.8,216.1 456.7,216.1 469.2,216.1 488.3,216.1 492.8,216.1 522.9,216.1 	
		"/>
	<path class="st1" d="M382.4,216.1c0-9.6,7.7-17.3,17.3-17.3c5.2,0,9.8,2.3,13,5.9"/>
	<path class="st1" d="M449.1,175.8c0.6-7.4,6.8-13.2,14.3-13.2c7.9,0,14.3,6.4,14.3,14.3c0,0.4,0,0.8,0,1.2"/>
	<path class="st1" d="M412.7,204.7c-0.4-1.9-0.7-3.9-0.7-5.9c0-14.2,11.5-25.7,25.7-25.7c4.1,0,7.9,0.9,11.4,2.7"/>
	<path class="st1" d="M477.7,178.1c1.1-0.2,2.2-0.3,3.3-0.3c11.6,0,21,9.4,21,21c0,0.1,0,0.3,0,0.4"/>
	<path class="st1" d="M502,199.2c1.2-0.3,2.4-0.4,3.7-0.4c9.6,0,17.3,7.7,17.3,17.3h-30.1"/>
</g>
<g>
	<line class="st1" x1="3764.4" y1="483.8" x2="3777.3" y2="483.8"/>
	<line class="st1" x1="3943.1" y1="483.8" x2="3947.8" y2="483.8"/>
	<polyline class="st1" points="3791.7,483.8 3826.3,483.8 3828.1,483.8 3866,483.8 3878.5,483.8 3897.6,483.8 3902.1,483.8 
		3932.2,483.8 	"/>
	<path class="st1" d="M3791.7,483.8c0-9.6,7.7-17.3,17.3-17.3c5.2,0,9.8,2.3,13,5.9"/>
	<path class="st1" d="M3858.4,443.5c0.6-7.4,6.8-13.2,14.3-13.2c7.9,0,14.3,6.4,14.3,14.3c0,0.4,0,0.8,0,1.2"/>
	<path class="st1" d="M3822,472.4c-0.4-1.9-0.7-3.9-0.7-5.9c0-14.2,11.5-25.7,25.7-25.7c4.1,0,7.9,0.9,11.4,2.7"/>
	<path class="st1" d="M3887,445.8c1.1-0.2,2.2-0.3,3.3-0.3c11.6,0,21,9.4,21,21c0,0.1,0,0.3,0,0.4"/>
	<path class="st1" d="M3911.3,466.9c1.2-0.3,2.4-0.4,3.7-0.4c9.6,0,17.3,7.7,17.3,17.3h-30.1"/>
</g>
<g>
	<line class="st1" x1="1881.4" y1="464.9" x2="1894.3" y2="464.9"/>
	<line class="st1" x1="2060.1" y1="464.9" x2="2064.8" y2="464.9"/>
	<path class="st1" d="M2019.1,464.9h30.1c0-9.6-7.7-17.3-17.3-17.3c-1.3,0-2.5,0.1-3.7,0.4l0,0c0-0.1,0-0.3,0-0.4
		c0-11.6-9.4-21-21-21c-1.1,0-2.2,0.1-3.3,0.3c0-0.4,0-0.8,0-1.2c0-7.9-6.4-14.3-14.3-14.3c-7.5,0-13.7,5.8-14.3,13.2
		c-3.4-1.7-7.3-2.7-11.4-2.7c-14.2,0-25.7,11.5-25.7,25.7c0,2,0.2,4,0.7,5.9l0,0c-3.2-3.6-7.8-5.9-13-5.9c-9.6,0-17.3,7.7-17.3,17.3
		h34.6h1.7h37.9h12.5h19.1H2019.1h30.1"/>
</g>
<g>
	<line class="st1" x1="2722" y1="323.5" x2="2704.6" y2="323.5"/>
	<line class="st1" x1="2481.2" y1="323.5" x2="2474.8" y2="323.5"/>
	<polyline class="st1" points="2495.9,323.5 2536.4,323.5 2542.5,323.5 2568.3,323.5 2585.2,323.5 2636.3,323.5 2638.6,323.5 
		2685.2,323.5 	"/>
	<path class="st1" d="M2649.9,303.5c3.5-2.1,7.6-3.3,12-3.3c12.9,0,23.3,10.4,23.3,23.3"/>
	<path class="st1" d="M2536.4,323.5h-40.6c0-12.9,10.4-23.3,23.3-23.3c1.2,0,2.3,0.1,3.4,0.3"/>
	<path class="st1" d="M2623.2,285c3-3.5,7.4-5.8,12.4-5.8c9,0,16.3,7.3,16.3,16.3c0,2.9-0.8,5.6-2.1,8"/>
	<path class="st1" d="M2522.6,300.5c-0.1-4.1,1-8.2,3.2-12c6.5-11.2,20.8-15,32.1-8.5c0,0,0.1,0,0.1,0.1"/>
	<path class="st1" d="M2557.9,280c1.9-16.8,16.3-29.6,33.5-29.2c18.1,0.5,32.4,15.4,32,33.5"/>
</g>
<g>
	<line class="st1" x1="336.3" y1="597.1" x2="318.9" y2="597.1"/>
	<line class="st1" x1="95.5" y1="597.1" x2="89.1" y2="597.1"/>
	<polyline class="st1" points="110.2,597.1 150.7,597.1 156.8,597.1 182.6,597.1 199.5,597.1 250.6,597.1 252.9,597.1 299.5,597.1 	
		"/>
	<path class="st1" d="M264.2,577.1c3.5-2.1,7.6-3.3,12-3.3c12.9,0,23.3,10.4,23.3,23.3"/>
	<path class="st1" d="M150.7,597.1h-40.6c0-12.9,10.4-23.3,23.3-23.3c1.2,0,2.3,0.1,3.4,0.3"/>
	<path class="st1" d="M237.5,558.6c3-3.5,7.4-5.8,12.4-5.8c9,0,16.3,7.3,16.3,16.3c0,2.9-0.8,5.6-2.1,8"/>
	<path class="st1" d="M136.9,574c-0.1-4.1,1-8.2,3.2-12c6.5-11.2,20.8-15,32.1-8.5c0,0,0.1,0,0.1,0.1"/>
	<path class="st1" d="M172.2,553.5c1.9-16.8,16.3-29.6,33.5-29.2c18.1,0.5,32.4,15.4,32,33.5"/>
</g>
<g>
	<g>
		<path class="st1" d="M2944.8,155.7l45.4,7.3c8.6,1.4,17.3-1.4,23.4-7.7l30.9-31.6l-10.4-2.1c-3.2-0.6-6.5-0.2-9.5,1.1l-30,16
			c-3,1.6-6.5,2-9.8,1.2l-108.1-25.1c-31.2-6.8-48.2-6.1-50.1,3.4c-2.7,13.4,29,20.2,29,20.2l45.3,9.2"/>
		<polygon class="st1" points="2885.9,134.9 2947.2,185.7 2963.7,189 2939.1,145.5 		"/>
		<polyline class="st1" points="2916.8,123.5 2916.8,123.5 2962.4,109.5 2978.9,112.8 2953.7,132.5 		"/>
	</g>
	<line class="st1" x1="3039.2" y1="161.1" x2="3074.9" y2="168.8"/>
	<line class="st1" x1="3025" y1="170.6" x2="3042.3" y2="174.3"/>
	<line class="st1" x1="3089.6" y1="172" x2="3100.8" y2="174.4"/>
</g>
</svg>
